<?xml version="1.0" encoding="utf-8" standalone="no"?>
<!DOCTYPE svg PUBLIC "-//W3C//DTD SVG 1.1//EN"
  "http://www.w3.org/Graphics/SVG/1.1/DTD/svg11.dtd">
<!-- Created with matplotlib (https://matplotlib.org/) -->
<svg height="603.7525pt" version="1.1" viewBox="0 0 601.665625 603.7525" width="601.665625pt" xmlns="http://www.w3.org/2000/svg" xmlns:xlink="http://www.w3.org/1999/xlink">
 <defs>
  <style type="text/css">
*{stroke-linecap:butt;stroke-linejoin:round;}
  </style>
 </defs>
 <g id="figure_1">
  <g id="patch_1">
   <path d="M 0 603.7525 
L 601.665625 603.7525 
L 601.665625 0 
L 0 0 
z
" style="fill:none;"/>
  </g>
  <g id="axes_1">
   <g id="patch_2">
    <path d="M 36.465625 269.409034 
L 594.465625 269.409034 
L 594.465625 22.318125 
L 36.465625 22.318125 
z
" style="fill:#ffffff;"/>
   </g>
   <g id="patch_3">
    <path clip-path="url(#pf26bcb74e0)" d="M 41.83101 269.409034 
L 45.407933 269.409034 
L 45.407933 266.145521 
L 41.83101 266.145521 
z
" style="fill:#1f77b4;"/>
   </g>
   <g id="patch_4">
    <path clip-path="url(#pf26bcb74e0)" d="M 63.292548 269.409034 
L 66.869471 269.409034 
L 66.869471 268.036154 
L 63.292548 268.036154 
z
" style="fill:#1f77b4;"/>
   </g>
   <g id="patch_5">
    <path clip-path="url(#pf26bcb74e0)" d="M 84.754087 269.409034 
L 88.33101 269.409034 
L 88.33101 267.79899 
L 84.754087 267.79899 
z
" style="fill:#1f77b4;"/>
   </g>
   <g id="patch_6">
    <path clip-path="url(#pf26bcb74e0)" d="M 106.215625 269.409034 
L 109.792548 269.409034 
L 109.792548 195.550765 
L 106.215625 195.550765 
z
" style="fill:#1f77b4;"/>
   </g>
   <g id="patch_7">
    <path clip-path="url(#pf26bcb74e0)" d="M 127.677163 269.409034 
L 131.254087 269.409034 
L 131.254087 173.691576 
L 127.677163 173.691576 
z
" style="fill:#1f77b4;"/>
   </g>
   <g id="patch_8">
    <path clip-path="url(#pf26bcb74e0)" d="M 149.138702 269.409034 
L 152.715625 269.409034 
L 152.715625 268.901302 
L 149.138702 268.901302 
z
" style="fill:#1f77b4;"/>
   </g>
   <g id="patch_9">
    <path clip-path="url(#pf26bcb74e0)" d="M 170.60024 269.409034 
L 174.177163 269.409034 
L 174.177163 267.949305 
L 170.60024 267.949305 
z
" style="fill:#1f77b4;"/>
   </g>
   <g id="patch_10">
    <path clip-path="url(#pf26bcb74e0)" d="M 192.061779 269.409034 
L 195.638702 269.409034 
L 195.638702 239.853701 
L 192.061779 239.853701 
z
" style="fill:#1f77b4;"/>
   </g>
   <g id="patch_11">
    <path clip-path="url(#pf26bcb74e0)" d="M 213.523317 269.409034 
L 217.10024 269.409034 
L 217.10024 268.861218 
L 213.523317 268.861218 
z
" style="fill:#1f77b4;"/>
   </g>
   <g id="patch_12">
    <path clip-path="url(#pf26bcb74e0)" d="M 234.984856 269.409034 
L 238.561779 269.409034 
L 238.561779 269.409034 
L 234.984856 269.409034 
z
" style="fill:#1f77b4;"/>
   </g>
   <g id="patch_13">
    <path clip-path="url(#pf26bcb74e0)" d="M 256.446394 269.409034 
L 260.023317 269.409034 
L 260.023317 245.679255 
L 256.446394 245.679255 
z
" style="fill:#1f77b4;"/>
   </g>
   <g id="patch_14">
    <path clip-path="url(#pf26bcb74e0)" d="M 277.907933 269.409034 
L 281.484856 269.409034 
L 281.484856 227.233895 
L 277.907933 227.233895 
z
" style="fill:#1f77b4;"/>
   </g>
   <g id="patch_15">
    <path clip-path="url(#pf26bcb74e0)" d="M 299.369471 269.409034 
L 302.946394 269.409034 
L 302.946394 231.756716 
L 299.369471 231.756716 
z
" style="fill:#1f77b4;"/>
   </g>
   <g id="patch_16">
    <path clip-path="url(#pf26bcb74e0)" d="M 320.83101 269.409034 
L 324.407933 269.409034 
L 324.407933 176.37721 
L 320.83101 176.37721 
z
" style="fill:#1f77b4;"/>
   </g>
   <g id="patch_17">
    <path clip-path="url(#pf26bcb74e0)" d="M 342.292548 269.409034 
L 345.869471 269.409034 
L 345.869471 258.339146 
L 342.292548 258.339146 
z
" style="fill:#1f77b4;"/>
   </g>
   <g id="patch_18">
    <path clip-path="url(#pf26bcb74e0)" d="M 363.754087 269.409034 
L 367.33101 269.409034 
L 367.33101 267.351384 
L 363.754087 267.351384 
z
" style="fill:#1f77b4;"/>
   </g>
   <g id="patch_19">
    <path clip-path="url(#pf26bcb74e0)" d="M 385.215625 269.409034 
L 388.792548 269.409034 
L 388.792548 269.409034 
L 385.215625 269.409034 
z
" style="fill:#1f77b4;"/>
   </g>
   <g id="patch_20">
    <path clip-path="url(#pf26bcb74e0)" d="M 406.677163 269.409034 
L 410.254087 269.409034 
L 410.254087 227.58129 
L 406.677163 227.58129 
z
" style="fill:#1f77b4;"/>
   </g>
   <g id="patch_21">
    <path clip-path="url(#pf26bcb74e0)" d="M 428.138702 269.409034 
L 431.715625 269.409034 
L 431.715625 184.551023 
L 428.138702 184.551023 
z
" style="fill:#1f77b4;"/>
   </g>
   <g id="patch_22">
    <path clip-path="url(#pf26bcb74e0)" d="M 449.60024 269.409034 
L 453.177163 269.409034 
L 453.177163 222.133195 
L 449.60024 222.133195 
z
" style="fill:#1f77b4;"/>
   </g>
   <g id="patch_23">
    <path clip-path="url(#pf26bcb74e0)" d="M 471.061779 269.409034 
L 474.638702 269.409034 
L 474.638702 269.328866 
L 471.061779 269.328866 
z
" style="fill:#1f77b4;"/>
   </g>
   <g id="patch_24">
    <path clip-path="url(#pf26bcb74e0)" d="M 492.523317 269.409034 
L 496.10024 269.409034 
L 496.10024 269.335547 
L 492.523317 269.335547 
z
" style="fill:#1f77b4;"/>
   </g>
   <g id="patch_25">
    <path clip-path="url(#pf26bcb74e0)" d="M 513.984856 269.409034 
L 517.561779 269.409034 
L 517.561779 265.303756 
L 513.984856 265.303756 
z
" style="fill:#1f77b4;"/>
   </g>
   <g id="patch_26">
    <path clip-path="url(#pf26bcb74e0)" d="M 535.446394 269.409034 
L 539.023317 269.409034 
L 539.023317 266.836972 
L 535.446394 266.836972 
z
" style="fill:#1f77b4;"/>
   </g>
   <g id="patch_27">
    <path clip-path="url(#pf26bcb74e0)" d="M 556.907933 269.409034 
L 560.484856 269.409034 
L 560.484856 219.233779 
L 556.907933 219.233779 
z
" style="fill:#1f77b4;"/>
   </g>
   <g id="patch_28">
    <path clip-path="url(#pf26bcb74e0)" d="M 578.369471 269.409034 
L 581.946394 269.409034 
L 581.946394 269.298803 
L 578.369471 269.298803 
z
" style="fill:#1f77b4;"/>
   </g>
   <g id="patch_29">
    <path clip-path="url(#pf26bcb74e0)" d="M 45.407933 269.409034 
L 48.984856 269.409034 
L 48.984856 267.826089 
L 45.407933 267.826089 
z
" style="fill:#ff7f0e;"/>
   </g>
   <g id="patch_30">
    <path clip-path="url(#pf26bcb74e0)" d="M 66.869471 269.409034 
L 70.446394 269.409034 
L 70.446394 268.219088 
L 66.869471 268.219088 
z
" style="fill:#ff7f0e;"/>
   </g>
   <g id="patch_31">
    <path clip-path="url(#pf26bcb74e0)" d="M 88.33101 269.409034 
L 91.907933 269.409034 
L 91.907933 264.701567 
L 88.33101 264.701567 
z
" style="fill:#ff7f0e;"/>
   </g>
   <g id="patch_32">
    <path clip-path="url(#pf26bcb74e0)" d="M 109.792548 269.409034 
L 113.369471 269.409034 
L 113.369471 189.680195 
L 109.792548 189.680195 
z
" style="fill:#ff7f0e;"/>
   </g>
   <g id="patch_33">
    <path clip-path="url(#pf26bcb74e0)" d="M 131.254087 269.409034 
L 134.83101 269.409034 
L 134.83101 215.014919 
L 131.254087 215.014919 
z
" style="fill:#ff7f0e;"/>
   </g>
   <g id="patch_34">
    <path clip-path="url(#pf26bcb74e0)" d="M 152.715625 269.409034 
L 156.292548 269.409034 
L 156.292548 266.603291 
L 152.715625 266.603291 
z
" style="fill:#ff7f0e;"/>
   </g>
   <g id="patch_35">
    <path clip-path="url(#pf26bcb74e0)" d="M 174.177163 269.409034 
L 177.754087 269.409034 
L 177.754087 263.253982 
L 174.177163 263.253982 
z
" style="fill:#ff7f0e;"/>
   </g>
   <g id="patch_36">
    <path clip-path="url(#pf26bcb74e0)" d="M 195.638702 269.409034 
L 199.215625 269.409034 
L 199.215625 244.818939 
L 195.638702 244.818939 
z
" style="fill:#ff7f0e;"/>
   </g>
   <g id="patch_37">
    <path clip-path="url(#pf26bcb74e0)" d="M 217.10024 269.409034 
L 220.677163 269.409034 
L 220.677163 269.017861 
L 217.10024 269.017861 
z
" style="fill:#ff7f0e;"/>
   </g>
   <g id="patch_38">
    <path clip-path="url(#pf26bcb74e0)" d="M 238.561779 269.409034 
L 242.138702 269.409034 
L 242.138702 269.409034 
L 238.561779 269.409034 
z
" style="fill:#ff7f0e;"/>
   </g>
   <g id="patch_39">
    <path clip-path="url(#pf26bcb74e0)" d="M 260.023317 269.409034 
L 263.60024 269.409034 
L 263.60024 237.374474 
L 260.023317 237.374474 
z
" style="fill:#ff7f0e;"/>
   </g>
   <g id="patch_40">
    <path clip-path="url(#pf26bcb74e0)" d="M 281.484856 269.409034 
L 285.061779 269.409034 
L 285.061779 201.359433 
L 281.484856 201.359433 
z
" style="fill:#ff7f0e;"/>
   </g>
   <g id="patch_41">
    <path clip-path="url(#pf26bcb74e0)" d="M 302.946394 269.409034 
L 306.523317 269.409034 
L 306.523317 247.4659 
L 302.946394 247.4659 
z
" style="fill:#ff7f0e;"/>
   </g>
   <g id="patch_42">
    <path clip-path="url(#pf26bcb74e0)" d="M 324.407933 269.409034 
L 327.984856 269.409034 
L 327.984856 170.470105 
L 324.407933 170.470105 
z
" style="fill:#ff7f0e;"/>
   </g>
   <g id="patch_43">
    <path clip-path="url(#pf26bcb74e0)" d="M 345.869471 269.409034 
L 349.446394 269.409034 
L 349.446394 261.087318 
L 345.869471 261.087318 
z
" style="fill:#ff7f0e;"/>
   </g>
   <g id="patch_44">
    <path clip-path="url(#pf26bcb74e0)" d="M 367.33101 269.409034 
L 370.907933 269.409034 
L 370.907933 265.727866 
L 367.33101 265.727866 
z
" style="fill:#ff7f0e;"/>
   </g>
   <g id="patch_45">
    <path clip-path="url(#pf26bcb74e0)" d="M 388.792548 269.409034 
L 392.369471 269.409034 
L 392.369471 269.409034 
L 388.792548 269.409034 
z
" style="fill:#ff7f0e;"/>
   </g>
   <g id="patch_46">
    <path clip-path="url(#pf26bcb74e0)" d="M 410.254087 269.409034 
L 413.83101 269.409034 
L 413.83101 249.277587 
L 410.254087 249.277587 
z
" style="fill:#ff7f0e;"/>
   </g>
   <g id="patch_47">
    <path clip-path="url(#pf26bcb74e0)" d="M 431.715625 269.409034 
L 435.292548 269.409034 
L 435.292548 202.769605 
L 431.715625 202.769605 
z
" style="fill:#ff7f0e;"/>
   </g>
   <g id="patch_48">
    <path clip-path="url(#pf26bcb74e0)" d="M 453.177163 269.409034 
L 456.754087 269.409034 
L 456.754087 226.819479 
L 453.177163 226.819479 
z
" style="fill:#ff7f0e;"/>
   </g>
   <g id="patch_49">
    <path clip-path="url(#pf26bcb74e0)" d="M 474.638702 269.409034 
L 478.215625 269.409034 
L 478.215625 269.371924 
L 474.638702 269.371924 
z
" style="fill:#ff7f0e;"/>
   </g>
   <g id="patch_50">
    <path clip-path="url(#pf26bcb74e0)" d="M 496.10024 269.409034 
L 499.677163 269.409034 
L 499.677163 269.385308 
L 496.10024 269.385308 
z
" style="fill:#ff7f0e;"/>
   </g>
   <g id="patch_51">
    <path clip-path="url(#pf26bcb74e0)" d="M 517.561779 269.409034 
L 521.138702 269.409034 
L 521.138702 264.407123 
L 517.561779 264.407123 
z
" style="fill:#ff7f0e;"/>
   </g>
   <g id="patch_52">
    <path clip-path="url(#pf26bcb74e0)" d="M 539.023317 269.409034 
L 542.60024 269.409034 
L 542.60024 268.208441 
L 539.023317 268.208441 
z
" style="fill:#ff7f0e;"/>
   </g>
   <g id="patch_53">
    <path clip-path="url(#pf26bcb74e0)" d="M 560.484856 269.409034 
L 564.061779 269.409034 
L 564.061779 164.979075 
L 560.484856 164.979075 
z
" style="fill:#ff7f0e;"/>
   </g>
   <g id="patch_54">
    <path clip-path="url(#pf26bcb74e0)" d="M 581.946394 269.409034 
L 585.523317 269.409034 
L 585.523317 269.289796 
L 581.946394 269.289796 
z
" style="fill:#ff7f0e;"/>
   </g>
   <g id="patch_55">
    <path clip-path="url(#pf26bcb74e0)" d="M 48.984856 269.409034 
L 52.561779 269.409034 
L 52.561779 259.691615 
L 48.984856 259.691615 
z
" style="fill:#2ca02c;"/>
   </g>
   <g id="patch_56">
    <path clip-path="url(#pf26bcb74e0)" d="M 70.446394 269.409034 
L 74.023317 269.409034 
L 74.023317 256.130703 
L 70.446394 256.130703 
z
" style="fill:#2ca02c;"/>
   </g>
   <g id="patch_57">
    <path clip-path="url(#pf26bcb74e0)" d="M 91.907933 269.409034 
L 95.484856 269.409034 
L 95.484856 261.507096 
L 91.907933 261.507096 
z
" style="fill:#2ca02c;"/>
   </g>
   <g id="patch_58">
    <path clip-path="url(#pf26bcb74e0)" d="M 113.369471 269.409034 
L 116.946394 269.409034 
L 116.946394 254.237996 
L 113.369471 254.237996 
z
" style="fill:#2ca02c;"/>
   </g>
   <g id="patch_59">
    <path clip-path="url(#pf26bcb74e0)" d="M 134.83101 269.409034 
L 138.407933 269.409034 
L 138.407933 225.324932 
L 134.83101 225.324932 
z
" style="fill:#2ca02c;"/>
   </g>
   <g id="patch_60">
    <path clip-path="url(#pf26bcb74e0)" d="M 156.292548 269.409034 
L 159.869471 269.409034 
L 159.869471 268.638488 
L 156.292548 268.638488 
z
" style="fill:#2ca02c;"/>
   </g>
   <g id="patch_61">
    <path clip-path="url(#pf26bcb74e0)" d="M 177.754087 269.409034 
L 181.33101 269.409034 
L 181.33101 268.498047 
L 177.754087 268.498047 
z
" style="fill:#2ca02c;"/>
   </g>
   <g id="patch_62">
    <path clip-path="url(#pf26bcb74e0)" d="M 199.215625 269.409034 
L 202.792548 269.409034 
L 202.792548 235.891148 
L 199.215625 235.891148 
z
" style="fill:#2ca02c;"/>
   </g>
   <g id="patch_63">
    <path clip-path="url(#pf26bcb74e0)" d="M 220.677163 269.409034 
L 224.254087 269.409034 
L 224.254087 254.730735 
L 220.677163 254.730735 
z
" style="fill:#2ca02c;"/>
   </g>
   <g id="patch_64">
    <path clip-path="url(#pf26bcb74e0)" d="M 242.138702 269.409034 
L 245.715625 269.409034 
L 245.715625 268.910486 
L 242.138702 268.910486 
z
" style="fill:#2ca02c;"/>
   </g>
   <g id="patch_65">
    <path clip-path="url(#pf26bcb74e0)" d="M 263.60024 269.409034 
L 267.177163 269.409034 
L 267.177163 257.381686 
L 263.60024 257.381686 
z
" style="fill:#2ca02c;"/>
   </g>
   <g id="patch_66">
    <path clip-path="url(#pf26bcb74e0)" d="M 285.061779 269.409034 
L 288.638702 269.409034 
L 288.638702 223.762997 
L 285.061779 223.762997 
z
" style="fill:#2ca02c;"/>
   </g>
   <g id="patch_67">
    <path clip-path="url(#pf26bcb74e0)" d="M 306.523317 269.409034 
L 310.10024 269.409034 
L 310.10024 253.414486 
L 306.523317 253.414486 
z
" style="fill:#2ca02c;"/>
   </g>
   <g id="patch_68">
    <path clip-path="url(#pf26bcb74e0)" d="M 327.984856 269.409034 
L 331.561779 269.409034 
L 331.561779 34.084359 
L 327.984856 34.084359 
z
" style="fill:#2ca02c;"/>
   </g>
   <g id="patch_69">
    <path clip-path="url(#pf26bcb74e0)" d="M 349.446394 269.409034 
L 353.023317 269.409034 
L 353.023317 241.722351 
L 349.446394 241.722351 
z
" style="fill:#2ca02c;"/>
   </g>
   <g id="patch_70">
    <path clip-path="url(#pf26bcb74e0)" d="M 370.907933 269.409034 
L 374.484856 269.409034 
L 374.484856 268.585866 
L 370.907933 268.585866 
z
" style="fill:#2ca02c;"/>
   </g>
   <g id="patch_71">
    <path clip-path="url(#pf26bcb74e0)" d="M 392.369471 269.409034 
L 395.946394 269.409034 
L 395.946394 269.292171 
L 392.369471 269.292171 
z
" style="fill:#2ca02c;"/>
   </g>
   <g id="patch_72">
    <path clip-path="url(#pf26bcb74e0)" d="M 413.83101 269.409034 
L 417.407933 269.409034 
L 417.407933 212.664062 
L 413.83101 212.664062 
z
" style="fill:#2ca02c;"/>
   </g>
   <g id="patch_73">
    <path clip-path="url(#pf26bcb74e0)" d="M 435.292548 269.409034 
L 438.869471 269.409034 
L 438.869471 227.150323 
L 435.292548 227.150323 
z
" style="fill:#2ca02c;"/>
   </g>
   <g id="patch_74">
    <path clip-path="url(#pf26bcb74e0)" d="M 456.754087 269.409034 
L 460.33101 269.409034 
L 460.33101 254.579702 
L 456.754087 254.579702 
z
" style="fill:#2ca02c;"/>
   </g>
   <g id="patch_75">
    <path clip-path="url(#pf26bcb74e0)" d="M 478.215625 269.409034 
L 481.792548 269.409034 
L 481.792548 268.616961 
L 478.215625 268.616961 
z
" style="fill:#2ca02c;"/>
   </g>
   <g id="patch_76">
    <path clip-path="url(#pf26bcb74e0)" d="M 499.677163 269.409034 
L 503.254087 269.409034 
L 503.254087 268.47857 
L 499.677163 268.47857 
z
" style="fill:#2ca02c;"/>
   </g>
   <g id="patch_77">
    <path clip-path="url(#pf26bcb74e0)" d="M 521.138702 269.409034 
L 524.715625 269.409034 
L 524.715625 258.933712 
L 521.138702 258.933712 
z
" style="fill:#2ca02c;"/>
   </g>
   <g id="patch_78">
    <path clip-path="url(#pf26bcb74e0)" d="M 542.60024 269.409034 
L 546.177163 269.409034 
L 546.177163 263.821467 
L 542.60024 263.821467 
z
" style="fill:#2ca02c;"/>
   </g>
   <g id="patch_79">
    <path clip-path="url(#pf26bcb74e0)" d="M 564.061779 269.409034 
L 567.638702 269.409034 
L 567.638702 231.676211 
L 564.061779 231.676211 
z
" style="fill:#2ca02c;"/>
   </g>
   <g id="patch_80">
    <path clip-path="url(#pf26bcb74e0)" d="M 585.523317 269.409034 
L 589.10024 269.409034 
L 589.10024 268.221266 
L 585.523317 268.221266 
z
" style="fill:#2ca02c;"/>
   </g>
   <g id="matplotlib.axis_1">
    <g id="xtick_1">
     <g id="line2d_1">
      <defs>
       <path d="M 0 0 
L 0 3.5 
" id="m4fbc019454" style="stroke:#000000;stroke-width:0.8;"/>
      </defs>
      <g>
       <use style="stroke:#000000;stroke-width:0.8;" x="47.196394" xlink:href="#m4fbc019454" y="269.409034"/>
      </g>
     </g>
     <g id="text_1">
      <!-- a -->
      <defs>
       <path d="M 34.28125 27.484375 
Q 23.390625 27.484375 19.1875 25 
Q 14.984375 22.515625 14.984375 16.5 
Q 14.984375 11.71875 18.140625 8.90625 
Q 21.296875 6.109375 26.703125 6.109375 
Q 34.1875 6.109375 38.703125 11.40625 
Q 43.21875 16.703125 43.21875 25.484375 
L 43.21875 27.484375 
z
M 52.203125 31.203125 
L 52.203125 0 
L 43.21875 0 
L 43.21875 8.296875 
Q 40.140625 3.328125 35.546875 0.953125 
Q 30.953125 -1.421875 24.3125 -1.421875 
Q 15.921875 -1.421875 10.953125 3.296875 
Q 6 8.015625 6 15.921875 
Q 6 25.140625 12.171875 29.828125 
Q 18.359375 34.515625 30.609375 34.515625 
L 43.21875 34.515625 
L 43.21875 35.40625 
Q 43.21875 41.609375 39.140625 45 
Q 35.0625 48.390625 27.6875 48.390625 
Q 23 48.390625 18.546875 47.265625 
Q 14.109375 46.140625 10.015625 43.890625 
L 10.015625 52.203125 
Q 14.9375 54.109375 19.578125 55.046875 
Q 24.21875 56 28.609375 56 
Q 40.484375 56 46.34375 49.84375 
Q 52.203125 43.703125 52.203125 31.203125 
z
" id="DejaVuSans-97"/>
      </defs>
      <g transform="translate(44.132332 284.007472)scale(0.1 -0.1)">
       <use xlink:href="#DejaVuSans-97"/>
      </g>
     </g>
    </g>
    <g id="xtick_2">
     <g id="line2d_2">
      <g>
       <use style="stroke:#000000;stroke-width:0.8;" x="68.657933" xlink:href="#m4fbc019454" y="269.409034"/>
      </g>
     </g>
     <g id="text_2">
      <!-- b -->
      <defs>
       <path d="M 48.6875 27.296875 
Q 48.6875 37.203125 44.609375 42.84375 
Q 40.53125 48.484375 33.40625 48.484375 
Q 26.265625 48.484375 22.1875 42.84375 
Q 18.109375 37.203125 18.109375 27.296875 
Q 18.109375 17.390625 22.1875 11.75 
Q 26.265625 6.109375 33.40625 6.109375 
Q 40.53125 6.109375 44.609375 11.75 
Q 48.6875 17.390625 48.6875 27.296875 
z
M 18.109375 46.390625 
Q 20.953125 51.265625 25.265625 53.625 
Q 29.59375 56 35.59375 56 
Q 45.5625 56 51.78125 48.09375 
Q 58.015625 40.1875 58.015625 27.296875 
Q 58.015625 14.40625 51.78125 6.484375 
Q 45.5625 -1.421875 35.59375 -1.421875 
Q 29.59375 -1.421875 25.265625 0.953125 
Q 20.953125 3.328125 18.109375 8.203125 
L 18.109375 0 
L 9.078125 0 
L 9.078125 75.984375 
L 18.109375 75.984375 
z
" id="DejaVuSans-98"/>
      </defs>
      <g transform="translate(65.483714 284.007472)scale(0.1 -0.1)">
       <use xlink:href="#DejaVuSans-98"/>
      </g>
     </g>
    </g>
    <g id="xtick_3">
     <g id="line2d_3">
      <g>
       <use style="stroke:#000000;stroke-width:0.8;" x="90.119471" xlink:href="#m4fbc019454" y="269.409034"/>
      </g>
     </g>
     <g id="text_3">
      <!-- c -->
      <defs>
       <path d="M 48.78125 52.59375 
L 48.78125 44.1875 
Q 44.96875 46.296875 41.140625 47.34375 
Q 37.3125 48.390625 33.40625 48.390625 
Q 24.65625 48.390625 19.8125 42.84375 
Q 14.984375 37.3125 14.984375 27.296875 
Q 14.984375 17.28125 19.8125 11.734375 
Q 24.65625 6.203125 33.40625 6.203125 
Q 37.3125 6.203125 41.140625 7.25 
Q 44.96875 8.296875 48.78125 10.40625 
L 48.78125 2.09375 
Q 45.015625 0.34375 40.984375 -0.53125 
Q 36.96875 -1.421875 32.421875 -1.421875 
Q 20.0625 -1.421875 12.78125 6.34375 
Q 5.515625 14.109375 5.515625 27.296875 
Q 5.515625 40.671875 12.859375 48.328125 
Q 20.21875 56 33.015625 56 
Q 37.15625 56 41.109375 55.140625 
Q 45.0625 54.296875 48.78125 52.59375 
z
" id="DejaVuSans-99"/>
      </defs>
      <g transform="translate(87.370252 284.007472)scale(0.1 -0.1)">
       <use xlink:href="#DejaVuSans-99"/>
      </g>
     </g>
    </g>
    <g id="xtick_4">
     <g id="line2d_4">
      <g>
       <use style="stroke:#000000;stroke-width:0.8;" x="111.58101" xlink:href="#m4fbc019454" y="269.409034"/>
      </g>
     </g>
     <g id="text_4">
      <!-- d -->
      <defs>
       <path d="M 45.40625 46.390625 
L 45.40625 75.984375 
L 54.390625 75.984375 
L 54.390625 0 
L 45.40625 0 
L 45.40625 8.203125 
Q 42.578125 3.328125 38.25 0.953125 
Q 33.9375 -1.421875 27.875 -1.421875 
Q 17.96875 -1.421875 11.734375 6.484375 
Q 5.515625 14.40625 5.515625 27.296875 
Q 5.515625 40.1875 11.734375 48.09375 
Q 17.96875 56 27.875 56 
Q 33.9375 56 38.25 53.625 
Q 42.578125 51.265625 45.40625 46.390625 
z
M 14.796875 27.296875 
Q 14.796875 17.390625 18.875 11.75 
Q 22.953125 6.109375 30.078125 6.109375 
Q 37.203125 6.109375 41.296875 11.75 
Q 45.40625 17.390625 45.40625 27.296875 
Q 45.40625 37.203125 41.296875 42.84375 
Q 37.203125 48.484375 30.078125 48.484375 
Q 22.953125 48.484375 18.875 42.84375 
Q 14.796875 37.203125 14.796875 27.296875 
z
" id="DejaVuSans-100"/>
      </defs>
      <g transform="translate(108.406791 284.007472)scale(0.1 -0.1)">
       <use xlink:href="#DejaVuSans-100"/>
      </g>
     </g>
    </g>
    <g id="xtick_5">
     <g id="line2d_5">
      <g>
       <use style="stroke:#000000;stroke-width:0.8;" x="133.042548" xlink:href="#m4fbc019454" y="269.409034"/>
      </g>
     </g>
     <g id="text_5">
      <!-- e -->
      <defs>
       <path d="M 56.203125 29.59375 
L 56.203125 25.203125 
L 14.890625 25.203125 
Q 15.484375 15.921875 20.484375 11.0625 
Q 25.484375 6.203125 34.421875 6.203125 
Q 39.59375 6.203125 44.453125 7.46875 
Q 49.3125 8.734375 54.109375 11.28125 
L 54.109375 2.78125 
Q 49.265625 0.734375 44.1875 -0.34375 
Q 39.109375 -1.421875 33.890625 -1.421875 
Q 20.796875 -1.421875 13.15625 6.1875 
Q 5.515625 13.8125 5.515625 26.8125 
Q 5.515625 40.234375 12.765625 48.109375 
Q 20.015625 56 32.328125 56 
Q 43.359375 56 49.78125 48.890625 
Q 56.203125 41.796875 56.203125 29.59375 
z
M 47.21875 32.234375 
Q 47.125 39.59375 43.09375 43.984375 
Q 39.0625 48.390625 32.421875 48.390625 
Q 24.90625 48.390625 20.390625 44.140625 
Q 15.875 39.890625 15.1875 32.171875 
z
" id="DejaVuSans-101"/>
      </defs>
      <g transform="translate(129.965986 284.007472)scale(0.1 -0.1)">
       <use xlink:href="#DejaVuSans-101"/>
      </g>
     </g>
    </g>
    <g id="xtick_6">
     <g id="line2d_6">
      <g>
       <use style="stroke:#000000;stroke-width:0.8;" x="154.504087" xlink:href="#m4fbc019454" y="269.409034"/>
      </g>
     </g>
     <g id="text_6">
      <!-- f -->
      <defs>
       <path d="M 37.109375 75.984375 
L 37.109375 68.5 
L 28.515625 68.5 
Q 23.6875 68.5 21.796875 66.546875 
Q 19.921875 64.59375 19.921875 59.515625 
L 19.921875 54.6875 
L 34.71875 54.6875 
L 34.71875 47.703125 
L 19.921875 47.703125 
L 19.921875 0 
L 10.890625 0 
L 10.890625 47.703125 
L 2.296875 47.703125 
L 2.296875 54.6875 
L 10.890625 54.6875 
L 10.890625 58.5 
Q 10.890625 67.625 15.140625 71.796875 
Q 19.390625 75.984375 28.609375 75.984375 
z
" id="DejaVuSans-102"/>
      </defs>
      <g transform="translate(152.74393 284.007472)scale(0.1 -0.1)">
       <use xlink:href="#DejaVuSans-102"/>
      </g>
     </g>
    </g>
    <g id="xtick_7">
     <g id="line2d_7">
      <g>
       <use style="stroke:#000000;stroke-width:0.8;" x="175.965625" xlink:href="#m4fbc019454" y="269.409034"/>
      </g>
     </g>
     <g id="text_7">
      <!-- g -->
      <defs>
       <path d="M 45.40625 27.984375 
Q 45.40625 37.75 41.375 43.109375 
Q 37.359375 48.484375 30.078125 48.484375 
Q 22.859375 48.484375 18.828125 43.109375 
Q 14.796875 37.75 14.796875 27.984375 
Q 14.796875 18.265625 18.828125 12.890625 
Q 22.859375 7.515625 30.078125 7.515625 
Q 37.359375 7.515625 41.375 12.890625 
Q 45.40625 18.265625 45.40625 27.984375 
z
M 54.390625 6.78125 
Q 54.390625 -7.171875 48.1875 -13.984375 
Q 42 -20.796875 29.203125 -20.796875 
Q 24.46875 -20.796875 20.265625 -20.09375 
Q 16.0625 -19.390625 12.109375 -17.921875 
L 12.109375 -9.1875 
Q 16.0625 -11.328125 19.921875 -12.34375 
Q 23.78125 -13.375 27.78125 -13.375 
Q 36.625 -13.375 41.015625 -8.765625 
Q 45.40625 -4.15625 45.40625 5.171875 
L 45.40625 9.625 
Q 42.625 4.78125 38.28125 2.390625 
Q 33.9375 0 27.875 0 
Q 17.828125 0 11.671875 7.65625 
Q 5.515625 15.328125 5.515625 27.984375 
Q 5.515625 40.671875 11.671875 48.328125 
Q 17.828125 56 27.875 56 
Q 33.9375 56 38.28125 53.609375 
Q 42.625 51.21875 45.40625 46.390625 
L 45.40625 54.6875 
L 54.390625 54.6875 
z
" id="DejaVuSans-103"/>
      </defs>
      <g transform="translate(172.791406 284.007472)scale(0.1 -0.1)">
       <use xlink:href="#DejaVuSans-103"/>
      </g>
     </g>
    </g>
    <g id="xtick_8">
     <g id="line2d_8">
      <g>
       <use style="stroke:#000000;stroke-width:0.8;" x="197.427163" xlink:href="#m4fbc019454" y="269.409034"/>
      </g>
     </g>
     <g id="text_8">
      <!-- h -->
      <defs>
       <path d="M 54.890625 33.015625 
L 54.890625 0 
L 45.90625 0 
L 45.90625 32.71875 
Q 45.90625 40.484375 42.875 44.328125 
Q 39.84375 48.1875 33.796875 48.1875 
Q 26.515625 48.1875 22.3125 43.546875 
Q 18.109375 38.921875 18.109375 30.90625 
L 18.109375 0 
L 9.078125 0 
L 9.078125 75.984375 
L 18.109375 75.984375 
L 18.109375 46.1875 
Q 21.34375 51.125 25.703125 53.5625 
Q 30.078125 56 35.796875 56 
Q 45.21875 56 50.046875 50.171875 
Q 54.890625 44.34375 54.890625 33.015625 
z
" id="DejaVuSans-104"/>
      </defs>
      <g transform="translate(194.258413 284.007472)scale(0.1 -0.1)">
       <use xlink:href="#DejaVuSans-104"/>
      </g>
     </g>
    </g>
    <g id="xtick_9">
     <g id="line2d_9">
      <g>
       <use style="stroke:#000000;stroke-width:0.8;" x="218.888702" xlink:href="#m4fbc019454" y="269.409034"/>
      </g>
     </g>
     <g id="text_9">
      <!-- i -->
      <defs>
       <path d="M 9.421875 54.6875 
L 18.40625 54.6875 
L 18.40625 0 
L 9.421875 0 
z
M 9.421875 75.984375 
L 18.40625 75.984375 
L 18.40625 64.59375 
L 9.421875 64.59375 
z
" id="DejaVuSans-105"/>
      </defs>
      <g transform="translate(217.499639 284.007472)scale(0.1 -0.1)">
       <use xlink:href="#DejaVuSans-105"/>
      </g>
     </g>
    </g>
    <g id="xtick_10">
     <g id="line2d_10">
      <g>
       <use style="stroke:#000000;stroke-width:0.8;" x="240.35024" xlink:href="#m4fbc019454" y="269.409034"/>
      </g>
     </g>
     <g id="text_10">
      <!-- j -->
      <defs>
       <path d="M 9.421875 54.6875 
L 18.40625 54.6875 
L 18.40625 -0.984375 
Q 18.40625 -11.421875 14.421875 -16.109375 
Q 10.453125 -20.796875 1.609375 -20.796875 
L -1.8125 -20.796875 
L -1.8125 -13.1875 
L 0.59375 -13.1875 
Q 5.71875 -13.1875 7.5625 -10.8125 
Q 9.421875 -8.453125 9.421875 -0.984375 
z
M 9.421875 75.984375 
L 18.40625 75.984375 
L 18.40625 64.59375 
L 9.421875 64.59375 
z
" id="DejaVuSans-106"/>
      </defs>
      <g transform="translate(238.961178 284.007472)scale(0.1 -0.1)">
       <use xlink:href="#DejaVuSans-106"/>
      </g>
     </g>
    </g>
    <g id="xtick_11">
     <g id="line2d_11">
      <g>
       <use style="stroke:#000000;stroke-width:0.8;" x="261.811779" xlink:href="#m4fbc019454" y="269.409034"/>
      </g>
     </g>
     <g id="text_11">
      <!-- k -->
      <defs>
       <path d="M 9.078125 75.984375 
L 18.109375 75.984375 
L 18.109375 31.109375 
L 44.921875 54.6875 
L 56.390625 54.6875 
L 27.390625 29.109375 
L 57.625 0 
L 45.90625 0 
L 18.109375 26.703125 
L 18.109375 0 
L 9.078125 0 
z
" id="DejaVuSans-107"/>
      </defs>
      <g transform="translate(258.916466 284.007472)scale(0.1 -0.1)">
       <use xlink:href="#DejaVuSans-107"/>
      </g>
     </g>
    </g>
    <g id="xtick_12">
     <g id="line2d_12">
      <g>
       <use style="stroke:#000000;stroke-width:0.8;" x="283.273317" xlink:href="#m4fbc019454" y="269.409034"/>
      </g>
     </g>
     <g id="text_12">
      <!-- l -->
      <defs>
       <path d="M 9.421875 75.984375 
L 18.40625 75.984375 
L 18.40625 0 
L 9.421875 0 
z
" id="DejaVuSans-108"/>
      </defs>
      <g transform="translate(281.884255 284.007472)scale(0.1 -0.1)">
       <use xlink:href="#DejaVuSans-108"/>
      </g>
     </g>
    </g>
    <g id="xtick_13">
     <g id="line2d_13">
      <g>
       <use style="stroke:#000000;stroke-width:0.8;" x="304.734856" xlink:href="#m4fbc019454" y="269.409034"/>
      </g>
     </g>
     <g id="text_13">
      <!-- m -->
      <defs>
       <path d="M 52 44.1875 
Q 55.375 50.25 60.0625 53.125 
Q 64.75 56 71.09375 56 
Q 79.640625 56 84.28125 50.015625 
Q 88.921875 44.046875 88.921875 33.015625 
L 88.921875 0 
L 79.890625 0 
L 79.890625 32.71875 
Q 79.890625 40.578125 77.09375 44.375 
Q 74.3125 48.1875 68.609375 48.1875 
Q 61.625 48.1875 57.5625 43.546875 
Q 53.515625 38.921875 53.515625 30.90625 
L 53.515625 0 
L 44.484375 0 
L 44.484375 32.71875 
Q 44.484375 40.625 41.703125 44.40625 
Q 38.921875 48.1875 33.109375 48.1875 
Q 26.21875 48.1875 22.15625 43.53125 
Q 18.109375 38.875 18.109375 30.90625 
L 18.109375 0 
L 9.078125 0 
L 9.078125 54.6875 
L 18.109375 54.6875 
L 18.109375 46.1875 
Q 21.1875 51.21875 25.484375 53.609375 
Q 29.78125 56 35.6875 56 
Q 41.65625 56 45.828125 52.96875 
Q 50 49.953125 52 44.1875 
z
" id="DejaVuSans-109"/>
      </defs>
      <g transform="translate(299.864543 284.007472)scale(0.1 -0.1)">
       <use xlink:href="#DejaVuSans-109"/>
      </g>
     </g>
    </g>
    <g id="xtick_14">
     <g id="line2d_14">
      <g>
       <use style="stroke:#000000;stroke-width:0.8;" x="326.196394" xlink:href="#m4fbc019454" y="269.409034"/>
      </g>
     </g>
     <g id="text_14">
      <!-- n -->
      <defs>
       <path d="M 54.890625 33.015625 
L 54.890625 0 
L 45.90625 0 
L 45.90625 32.71875 
Q 45.90625 40.484375 42.875 44.328125 
Q 39.84375 48.1875 33.796875 48.1875 
Q 26.515625 48.1875 22.3125 43.546875 
Q 18.109375 38.921875 18.109375 30.90625 
L 18.109375 0 
L 9.078125 0 
L 9.078125 54.6875 
L 18.109375 54.6875 
L 18.109375 46.1875 
Q 21.34375 51.125 25.703125 53.5625 
Q 30.078125 56 35.796875 56 
Q 45.21875 56 50.046875 50.171875 
Q 54.890625 44.34375 54.890625 33.015625 
z
" id="DejaVuSans-110"/>
      </defs>
      <g transform="translate(323.027644 284.007472)scale(0.1 -0.1)">
       <use xlink:href="#DejaVuSans-110"/>
      </g>
     </g>
    </g>
    <g id="xtick_15">
     <g id="line2d_15">
      <g>
       <use style="stroke:#000000;stroke-width:0.8;" x="347.657933" xlink:href="#m4fbc019454" y="269.409034"/>
      </g>
     </g>
     <g id="text_15">
      <!-- o -->
      <defs>
       <path d="M 30.609375 48.390625 
Q 23.390625 48.390625 19.1875 42.75 
Q 14.984375 37.109375 14.984375 27.296875 
Q 14.984375 17.484375 19.15625 11.84375 
Q 23.34375 6.203125 30.609375 6.203125 
Q 37.796875 6.203125 41.984375 11.859375 
Q 46.1875 17.53125 46.1875 27.296875 
Q 46.1875 37.015625 41.984375 42.703125 
Q 37.796875 48.390625 30.609375 48.390625 
z
M 30.609375 56 
Q 42.328125 56 49.015625 48.375 
Q 55.71875 40.765625 55.71875 27.296875 
Q 55.71875 13.875 49.015625 6.21875 
Q 42.328125 -1.421875 30.609375 -1.421875 
Q 18.84375 -1.421875 12.171875 6.21875 
Q 5.515625 13.875 5.515625 27.296875 
Q 5.515625 40.765625 12.171875 48.375 
Q 18.84375 56 30.609375 56 
z
" id="DejaVuSans-111"/>
      </defs>
      <g transform="translate(344.598558 284.007472)scale(0.1 -0.1)">
       <use xlink:href="#DejaVuSans-111"/>
      </g>
     </g>
    </g>
    <g id="xtick_16">
     <g id="line2d_16">
      <g>
       <use style="stroke:#000000;stroke-width:0.8;" x="369.119471" xlink:href="#m4fbc019454" y="269.409034"/>
      </g>
     </g>
     <g id="text_16">
      <!-- p -->
      <defs>
       <path d="M 18.109375 8.203125 
L 18.109375 -20.796875 
L 9.078125 -20.796875 
L 9.078125 54.6875 
L 18.109375 54.6875 
L 18.109375 46.390625 
Q 20.953125 51.265625 25.265625 53.625 
Q 29.59375 56 35.59375 56 
Q 45.5625 56 51.78125 48.09375 
Q 58.015625 40.1875 58.015625 27.296875 
Q 58.015625 14.40625 51.78125 6.484375 
Q 45.5625 -1.421875 35.59375 -1.421875 
Q 29.59375 -1.421875 25.265625 0.953125 
Q 20.953125 3.328125 18.109375 8.203125 
z
M 48.6875 27.296875 
Q 48.6875 37.203125 44.609375 42.84375 
Q 40.53125 48.484375 33.40625 48.484375 
Q 26.265625 48.484375 22.1875 42.84375 
Q 18.109375 37.203125 18.109375 27.296875 
Q 18.109375 17.390625 22.1875 11.75 
Q 26.265625 6.109375 33.40625 6.109375 
Q 40.53125 6.109375 44.609375 11.75 
Q 48.6875 17.390625 48.6875 27.296875 
z
" id="DejaVuSans-112"/>
      </defs>
      <g transform="translate(365.945252 284.007472)scale(0.1 -0.1)">
       <use xlink:href="#DejaVuSans-112"/>
      </g>
     </g>
    </g>
    <g id="xtick_17">
     <g id="line2d_17">
      <g>
       <use style="stroke:#000000;stroke-width:0.8;" x="390.58101" xlink:href="#m4fbc019454" y="269.409034"/>
      </g>
     </g>
     <g id="text_17">
      <!-- q -->
      <defs>
       <path d="M 14.796875 27.296875 
Q 14.796875 17.390625 18.875 11.75 
Q 22.953125 6.109375 30.078125 6.109375 
Q 37.203125 6.109375 41.296875 11.75 
Q 45.40625 17.390625 45.40625 27.296875 
Q 45.40625 37.203125 41.296875 42.84375 
Q 37.203125 48.484375 30.078125 48.484375 
Q 22.953125 48.484375 18.875 42.84375 
Q 14.796875 37.203125 14.796875 27.296875 
z
M 45.40625 8.203125 
Q 42.578125 3.328125 38.25 0.953125 
Q 33.9375 -1.421875 27.875 -1.421875 
Q 17.96875 -1.421875 11.734375 6.484375 
Q 5.515625 14.40625 5.515625 27.296875 
Q 5.515625 40.1875 11.734375 48.09375 
Q 17.96875 56 27.875 56 
Q 33.9375 56 38.25 53.625 
Q 42.578125 51.265625 45.40625 46.390625 
L 45.40625 54.6875 
L 54.390625 54.6875 
L 54.390625 -20.796875 
L 45.40625 -20.796875 
z
" id="DejaVuSans-113"/>
      </defs>
      <g transform="translate(387.406791 284.007472)scale(0.1 -0.1)">
       <use xlink:href="#DejaVuSans-113"/>
      </g>
     </g>
    </g>
    <g id="xtick_18">
     <g id="line2d_18">
      <g>
       <use style="stroke:#000000;stroke-width:0.8;" x="412.042548" xlink:href="#m4fbc019454" y="269.409034"/>
      </g>
     </g>
     <g id="text_18">
      <!-- r -->
      <defs>
       <path d="M 41.109375 46.296875 
Q 39.59375 47.171875 37.8125 47.578125 
Q 36.03125 48 33.890625 48 
Q 26.265625 48 22.1875 43.046875 
Q 18.109375 38.09375 18.109375 28.8125 
L 18.109375 0 
L 9.078125 0 
L 9.078125 54.6875 
L 18.109375 54.6875 
L 18.109375 46.1875 
Q 20.953125 51.171875 25.484375 53.578125 
Q 30.03125 56 36.53125 56 
Q 37.453125 56 38.578125 55.875 
Q 39.703125 55.765625 41.0625 55.515625 
z
" id="DejaVuSans-114"/>
      </defs>
      <g transform="translate(409.987079 284.007472)scale(0.1 -0.1)">
       <use xlink:href="#DejaVuSans-114"/>
      </g>
     </g>
    </g>
    <g id="xtick_19">
     <g id="line2d_19">
      <g>
       <use style="stroke:#000000;stroke-width:0.8;" x="433.504087" xlink:href="#m4fbc019454" y="269.409034"/>
      </g>
     </g>
     <g id="text_19">
      <!-- s -->
      <defs>
       <path d="M 44.28125 53.078125 
L 44.28125 44.578125 
Q 40.484375 46.53125 36.375 47.5 
Q 32.28125 48.484375 27.875 48.484375 
Q 21.1875 48.484375 17.84375 46.4375 
Q 14.5 44.390625 14.5 40.28125 
Q 14.5 37.15625 16.890625 35.375 
Q 19.28125 33.59375 26.515625 31.984375 
L 29.59375 31.296875 
Q 39.15625 29.25 43.1875 25.515625 
Q 47.21875 21.78125 47.21875 15.09375 
Q 47.21875 7.46875 41.1875 3.015625 
Q 35.15625 -1.421875 24.609375 -1.421875 
Q 20.21875 -1.421875 15.453125 -0.5625 
Q 10.6875 0.296875 5.421875 2 
L 5.421875 11.28125 
Q 10.40625 8.6875 15.234375 7.390625 
Q 20.0625 6.109375 24.8125 6.109375 
Q 31.15625 6.109375 34.5625 8.28125 
Q 37.984375 10.453125 37.984375 14.40625 
Q 37.984375 18.0625 35.515625 20.015625 
Q 33.0625 21.96875 24.703125 23.78125 
L 21.578125 24.515625 
Q 13.234375 26.265625 9.515625 29.90625 
Q 5.8125 33.546875 5.8125 39.890625 
Q 5.8125 47.609375 11.28125 51.796875 
Q 16.75 56 26.8125 56 
Q 31.78125 56 36.171875 55.265625 
Q 40.578125 54.546875 44.28125 53.078125 
z
" id="DejaVuSans-115"/>
      </defs>
      <g transform="translate(430.899399 284.007472)scale(0.1 -0.1)">
       <use xlink:href="#DejaVuSans-115"/>
      </g>
     </g>
    </g>
    <g id="xtick_20">
     <g id="line2d_20">
      <g>
       <use style="stroke:#000000;stroke-width:0.8;" x="454.965625" xlink:href="#m4fbc019454" y="269.409034"/>
      </g>
     </g>
     <g id="text_20">
      <!-- t -->
      <defs>
       <path d="M 18.3125 70.21875 
L 18.3125 54.6875 
L 36.8125 54.6875 
L 36.8125 47.703125 
L 18.3125 47.703125 
L 18.3125 18.015625 
Q 18.3125 11.328125 20.140625 9.421875 
Q 21.96875 7.515625 27.59375 7.515625 
L 36.8125 7.515625 
L 36.8125 0 
L 27.59375 0 
Q 17.1875 0 13.234375 3.875 
Q 9.28125 7.765625 9.28125 18.015625 
L 9.28125 47.703125 
L 2.6875 47.703125 
L 2.6875 54.6875 
L 9.28125 54.6875 
L 9.28125 70.21875 
z
" id="DejaVuSans-116"/>
      </defs>
      <g transform="translate(453.005469 284.007472)scale(0.1 -0.1)">
       <use xlink:href="#DejaVuSans-116"/>
      </g>
     </g>
    </g>
    <g id="xtick_21">
     <g id="line2d_21">
      <g>
       <use style="stroke:#000000;stroke-width:0.8;" x="476.427163" xlink:href="#m4fbc019454" y="269.409034"/>
      </g>
     </g>
     <g id="text_21">
      <!-- u -->
      <defs>
       <path d="M 8.5 21.578125 
L 8.5 54.6875 
L 17.484375 54.6875 
L 17.484375 21.921875 
Q 17.484375 14.15625 20.5 10.265625 
Q 23.53125 6.390625 29.59375 6.390625 
Q 36.859375 6.390625 41.078125 11.03125 
Q 45.3125 15.671875 45.3125 23.6875 
L 45.3125 54.6875 
L 54.296875 54.6875 
L 54.296875 0 
L 45.3125 0 
L 45.3125 8.40625 
Q 42.046875 3.421875 37.71875 1 
Q 33.40625 -1.421875 27.6875 -1.421875 
Q 18.265625 -1.421875 13.375 4.4375 
Q 8.5 10.296875 8.5 21.578125 
z
M 31.109375 56 
z
" id="DejaVuSans-117"/>
      </defs>
      <g transform="translate(473.258413 284.007472)scale(0.1 -0.1)">
       <use xlink:href="#DejaVuSans-117"/>
      </g>
     </g>
    </g>
    <g id="xtick_22">
     <g id="line2d_22">
      <g>
       <use style="stroke:#000000;stroke-width:0.8;" x="497.888702" xlink:href="#m4fbc019454" y="269.409034"/>
      </g>
     </g>
     <g id="text_22">
      <!-- v -->
      <defs>
       <path d="M 2.984375 54.6875 
L 12.5 54.6875 
L 29.59375 8.796875 
L 46.6875 54.6875 
L 56.203125 54.6875 
L 35.6875 0 
L 23.484375 0 
z
" id="DejaVuSans-118"/>
      </defs>
      <g transform="translate(494.929327 284.007472)scale(0.1 -0.1)">
       <use xlink:href="#DejaVuSans-118"/>
      </g>
     </g>
    </g>
    <g id="xtick_23">
     <g id="line2d_23">
      <g>
       <use style="stroke:#000000;stroke-width:0.8;" x="519.35024" xlink:href="#m4fbc019454" y="269.409034"/>
      </g>
     </g>
     <g id="text_23">
      <!-- w -->
      <defs>
       <path d="M 4.203125 54.6875 
L 13.1875 54.6875 
L 24.421875 12.015625 
L 35.59375 54.6875 
L 46.1875 54.6875 
L 57.421875 12.015625 
L 68.609375 54.6875 
L 77.59375 54.6875 
L 63.28125 0 
L 52.6875 0 
L 40.921875 44.828125 
L 29.109375 0 
L 18.5 0 
z
" id="DejaVuSans-119"/>
      </defs>
      <g transform="translate(515.261178 284.007472)scale(0.1 -0.1)">
       <use xlink:href="#DejaVuSans-119"/>
      </g>
     </g>
    </g>
    <g id="xtick_24">
     <g id="line2d_24">
      <g>
       <use style="stroke:#000000;stroke-width:0.8;" x="540.811779" xlink:href="#m4fbc019454" y="269.409034"/>
      </g>
     </g>
     <g id="text_24">
      <!-- x -->
      <defs>
       <path d="M 54.890625 54.6875 
L 35.109375 28.078125 
L 55.90625 0 
L 45.3125 0 
L 29.390625 21.484375 
L 13.484375 0 
L 2.875 0 
L 24.125 28.609375 
L 4.6875 54.6875 
L 15.28125 54.6875 
L 29.78125 35.203125 
L 44.28125 54.6875 
z
" id="DejaVuSans-120"/>
      </defs>
      <g transform="translate(537.852404 284.007472)scale(0.1 -0.1)">
       <use xlink:href="#DejaVuSans-120"/>
      </g>
     </g>
    </g>
    <g id="xtick_25">
     <g id="line2d_25">
      <g>
       <use style="stroke:#000000;stroke-width:0.8;" x="562.273317" xlink:href="#m4fbc019454" y="269.409034"/>
      </g>
     </g>
     <g id="text_25">
      <!-- y -->
      <defs>
       <path d="M 32.171875 -5.078125 
Q 28.375 -14.84375 24.75 -17.8125 
Q 21.140625 -20.796875 15.09375 -20.796875 
L 7.90625 -20.796875 
L 7.90625 -13.28125 
L 13.1875 -13.28125 
Q 16.890625 -13.28125 18.9375 -11.515625 
Q 21 -9.765625 23.484375 -3.21875 
L 25.09375 0.875 
L 2.984375 54.6875 
L 12.5 54.6875 
L 29.59375 11.921875 
L 46.6875 54.6875 
L 56.203125 54.6875 
z
" id="DejaVuSans-121"/>
      </defs>
      <g transform="translate(559.313942 284.007472)scale(0.1 -0.1)">
       <use xlink:href="#DejaVuSans-121"/>
      </g>
     </g>
    </g>
    <g id="xtick_26">
     <g id="line2d_26">
      <g>
       <use style="stroke:#000000;stroke-width:0.8;" x="583.734856" xlink:href="#m4fbc019454" y="269.409034"/>
      </g>
     </g>
     <g id="text_26">
      <!-- z -->
      <defs>
       <path d="M 5.515625 54.6875 
L 48.1875 54.6875 
L 48.1875 46.484375 
L 14.40625 7.171875 
L 48.1875 7.171875 
L 48.1875 0 
L 4.296875 0 
L 4.296875 8.203125 
L 38.09375 47.515625 
L 5.515625 47.515625 
z
" id="DejaVuSans-122"/>
      </defs>
      <g transform="translate(581.110637 284.007472)scale(0.1 -0.1)">
       <use xlink:href="#DejaVuSans-122"/>
      </g>
     </g>
    </g>
    <g id="text_27">
     <!-- last_letter -->
     <defs>
      <path d="M 50.984375 -16.609375 
L 50.984375 -23.578125 
L -0.984375 -23.578125 
L -0.984375 -16.609375 
z
" id="DejaVuSans-95"/>
     </defs>
     <g transform="translate(290.429688 297.685597)scale(0.1 -0.1)">
      <use xlink:href="#DejaVuSans-108"/>
      <use x="27.783203" xlink:href="#DejaVuSans-97"/>
      <use x="89.0625" xlink:href="#DejaVuSans-115"/>
      <use x="141.162109" xlink:href="#DejaVuSans-116"/>
      <use x="180.371094" xlink:href="#DejaVuSans-95"/>
      <use x="230.371094" xlink:href="#DejaVuSans-108"/>
      <use x="258.154297" xlink:href="#DejaVuSans-101"/>
      <use x="319.677734" xlink:href="#DejaVuSans-116"/>
      <use x="358.886719" xlink:href="#DejaVuSans-116"/>
      <use x="398.095703" xlink:href="#DejaVuSans-101"/>
      <use x="459.619141" xlink:href="#DejaVuSans-114"/>
     </g>
    </g>
   </g>
   <g id="matplotlib.axis_2">
    <g id="ytick_1">
     <g id="line2d_27">
      <defs>
       <path d="M 0 0 
L -3.5 0 
" id="me6368b69d2" style="stroke:#000000;stroke-width:0.8;"/>
      </defs>
      <g>
       <use style="stroke:#000000;stroke-width:0.8;" x="36.465625" xlink:href="#me6368b69d2" y="269.409034"/>
      </g>
     </g>
     <g id="text_28">
      <!-- 0.00 -->
      <defs>
       <path d="M 31.78125 66.40625 
Q 24.171875 66.40625 20.328125 58.90625 
Q 16.5 51.421875 16.5 36.375 
Q 16.5 21.390625 20.328125 13.890625 
Q 24.171875 6.390625 31.78125 6.390625 
Q 39.453125 6.390625 43.28125 13.890625 
Q 47.125 21.390625 47.125 36.375 
Q 47.125 51.421875 43.28125 58.90625 
Q 39.453125 66.40625 31.78125 66.40625 
z
M 31.78125 74.21875 
Q 44.046875 74.21875 50.515625 64.515625 
Q 56.984375 54.828125 56.984375 36.375 
Q 56.984375 17.96875 50.515625 8.265625 
Q 44.046875 -1.421875 31.78125 -1.421875 
Q 19.53125 -1.421875 13.0625 8.265625 
Q 6.59375 17.96875 6.59375 36.375 
Q 6.59375 54.828125 13.0625 64.515625 
Q 19.53125 74.21875 31.78125 74.21875 
z
" id="DejaVuSans-48"/>
       <path d="M 10.6875 12.40625 
L 21 12.40625 
L 21 0 
L 10.6875 0 
z
" id="DejaVuSans-46"/>
      </defs>
      <g transform="translate(7.2 273.208253)scale(0.1 -0.1)">
       <use xlink:href="#DejaVuSans-48"/>
       <use x="63.623047" xlink:href="#DejaVuSans-46"/>
       <use x="95.410156" xlink:href="#DejaVuSans-48"/>
       <use x="159.033203" xlink:href="#DejaVuSans-48"/>
      </g>
     </g>
    </g>
    <g id="ytick_2">
     <g id="line2d_28">
      <g>
       <use style="stroke:#000000;stroke-width:0.8;" x="36.465625" xlink:href="#me6368b69d2" y="236.974662"/>
      </g>
     </g>
     <g id="text_29">
      <!-- 0.05 -->
      <defs>
       <path d="M 10.796875 72.90625 
L 49.515625 72.90625 
L 49.515625 64.59375 
L 19.828125 64.59375 
L 19.828125 46.734375 
Q 21.96875 47.46875 24.109375 47.828125 
Q 26.265625 48.1875 28.421875 48.1875 
Q 40.625 48.1875 47.75 41.5 
Q 54.890625 34.8125 54.890625 23.390625 
Q 54.890625 11.625 47.5625 5.09375 
Q 40.234375 -1.421875 26.90625 -1.421875 
Q 22.3125 -1.421875 17.546875 -0.640625 
Q 12.796875 0.140625 7.71875 1.703125 
L 7.71875 11.625 
Q 12.109375 9.234375 16.796875 8.0625 
Q 21.484375 6.890625 26.703125 6.890625 
Q 35.15625 6.890625 40.078125 11.328125 
Q 45.015625 15.765625 45.015625 23.390625 
Q 45.015625 31 40.078125 35.4375 
Q 35.15625 39.890625 26.703125 39.890625 
Q 22.75 39.890625 18.8125 39.015625 
Q 14.890625 38.140625 10.796875 36.28125 
z
" id="DejaVuSans-53"/>
      </defs>
      <g transform="translate(7.2 240.77388)scale(0.1 -0.1)">
       <use xlink:href="#DejaVuSans-48"/>
       <use x="63.623047" xlink:href="#DejaVuSans-46"/>
       <use x="95.410156" xlink:href="#DejaVuSans-48"/>
       <use x="159.033203" xlink:href="#DejaVuSans-53"/>
      </g>
     </g>
    </g>
    <g id="ytick_3">
     <g id="line2d_29">
      <g>
       <use style="stroke:#000000;stroke-width:0.8;" x="36.465625" xlink:href="#me6368b69d2" y="204.540289"/>
      </g>
     </g>
     <g id="text_30">
      <!-- 0.10 -->
      <defs>
       <path d="M 12.40625 8.296875 
L 28.515625 8.296875 
L 28.515625 63.921875 
L 10.984375 60.40625 
L 10.984375 69.390625 
L 28.421875 72.90625 
L 38.28125 72.90625 
L 38.28125 8.296875 
L 54.390625 8.296875 
L 54.390625 0 
L 12.40625 0 
z
" id="DejaVuSans-49"/>
      </defs>
      <g transform="translate(7.2 208.339508)scale(0.1 -0.1)">
       <use xlink:href="#DejaVuSans-48"/>
       <use x="63.623047" xlink:href="#DejaVuSans-46"/>
       <use x="95.410156" xlink:href="#DejaVuSans-49"/>
       <use x="159.033203" xlink:href="#DejaVuSans-48"/>
      </g>
     </g>
    </g>
    <g id="ytick_4">
     <g id="line2d_30">
      <g>
       <use style="stroke:#000000;stroke-width:0.8;" x="36.465625" xlink:href="#me6368b69d2" y="172.105916"/>
      </g>
     </g>
     <g id="text_31">
      <!-- 0.15 -->
      <g transform="translate(7.2 175.905135)scale(0.1 -0.1)">
       <use xlink:href="#DejaVuSans-48"/>
       <use x="63.623047" xlink:href="#DejaVuSans-46"/>
       <use x="95.410156" xlink:href="#DejaVuSans-49"/>
       <use x="159.033203" xlink:href="#DejaVuSans-53"/>
      </g>
     </g>
    </g>
    <g id="ytick_5">
     <g id="line2d_31">
      <g>
       <use style="stroke:#000000;stroke-width:0.8;" x="36.465625" xlink:href="#me6368b69d2" y="139.671544"/>
      </g>
     </g>
     <g id="text_32">
      <!-- 0.20 -->
      <defs>
       <path d="M 19.1875 8.296875 
L 53.609375 8.296875 
L 53.609375 0 
L 7.328125 0 
L 7.328125 8.296875 
Q 12.9375 14.109375 22.625 23.890625 
Q 32.328125 33.6875 34.8125 36.53125 
Q 39.546875 41.84375 41.421875 45.53125 
Q 43.3125 49.21875 43.3125 52.78125 
Q 43.3125 58.59375 39.234375 62.25 
Q 35.15625 65.921875 28.609375 65.921875 
Q 23.96875 65.921875 18.8125 64.3125 
Q 13.671875 62.703125 7.8125 59.421875 
L 7.8125 69.390625 
Q 13.765625 71.78125 18.9375 73 
Q 24.125 74.21875 28.421875 74.21875 
Q 39.75 74.21875 46.484375 68.546875 
Q 53.21875 62.890625 53.21875 53.421875 
Q 53.21875 48.921875 51.53125 44.890625 
Q 49.859375 40.875 45.40625 35.40625 
Q 44.1875 33.984375 37.640625 27.21875 
Q 31.109375 20.453125 19.1875 8.296875 
z
" id="DejaVuSans-50"/>
      </defs>
      <g transform="translate(7.2 143.470763)scale(0.1 -0.1)">
       <use xlink:href="#DejaVuSans-48"/>
       <use x="63.623047" xlink:href="#DejaVuSans-46"/>
       <use x="95.410156" xlink:href="#DejaVuSans-50"/>
       <use x="159.033203" xlink:href="#DejaVuSans-48"/>
      </g>
     </g>
    </g>
    <g id="ytick_6">
     <g id="line2d_32">
      <g>
       <use style="stroke:#000000;stroke-width:0.8;" x="36.465625" xlink:href="#me6368b69d2" y="107.237171"/>
      </g>
     </g>
     <g id="text_33">
      <!-- 0.25 -->
      <g transform="translate(7.2 111.03639)scale(0.1 -0.1)">
       <use xlink:href="#DejaVuSans-48"/>
       <use x="63.623047" xlink:href="#DejaVuSans-46"/>
       <use x="95.410156" xlink:href="#DejaVuSans-50"/>
       <use x="159.033203" xlink:href="#DejaVuSans-53"/>
      </g>
     </g>
    </g>
    <g id="ytick_7">
     <g id="line2d_33">
      <g>
       <use style="stroke:#000000;stroke-width:0.8;" x="36.465625" xlink:href="#me6368b69d2" y="74.802799"/>
      </g>
     </g>
     <g id="text_34">
      <!-- 0.30 -->
      <defs>
       <path d="M 40.578125 39.3125 
Q 47.65625 37.796875 51.625 33 
Q 55.609375 28.21875 55.609375 21.1875 
Q 55.609375 10.40625 48.1875 4.484375 
Q 40.765625 -1.421875 27.09375 -1.421875 
Q 22.515625 -1.421875 17.65625 -0.515625 
Q 12.796875 0.390625 7.625 2.203125 
L 7.625 11.71875 
Q 11.71875 9.328125 16.59375 8.109375 
Q 21.484375 6.890625 26.8125 6.890625 
Q 36.078125 6.890625 40.9375 10.546875 
Q 45.796875 14.203125 45.796875 21.1875 
Q 45.796875 27.640625 41.28125 31.265625 
Q 36.765625 34.90625 28.71875 34.90625 
L 20.21875 34.90625 
L 20.21875 43.015625 
L 29.109375 43.015625 
Q 36.375 43.015625 40.234375 45.921875 
Q 44.09375 48.828125 44.09375 54.296875 
Q 44.09375 59.90625 40.109375 62.90625 
Q 36.140625 65.921875 28.71875 65.921875 
Q 24.65625 65.921875 20.015625 65.03125 
Q 15.375 64.15625 9.8125 62.3125 
L 9.8125 71.09375 
Q 15.4375 72.65625 20.34375 73.4375 
Q 25.25 74.21875 29.59375 74.21875 
Q 40.828125 74.21875 47.359375 69.109375 
Q 53.90625 64.015625 53.90625 55.328125 
Q 53.90625 49.265625 50.4375 45.09375 
Q 46.96875 40.921875 40.578125 39.3125 
z
" id="DejaVuSans-51"/>
      </defs>
      <g transform="translate(7.2 78.602017)scale(0.1 -0.1)">
       <use xlink:href="#DejaVuSans-48"/>
       <use x="63.623047" xlink:href="#DejaVuSans-46"/>
       <use x="95.410156" xlink:href="#DejaVuSans-51"/>
       <use x="159.033203" xlink:href="#DejaVuSans-48"/>
      </g>
     </g>
    </g>
    <g id="ytick_8">
     <g id="line2d_34">
      <g>
       <use style="stroke:#000000;stroke-width:0.8;" x="36.465625" xlink:href="#me6368b69d2" y="42.368426"/>
      </g>
     </g>
     <g id="text_35">
      <!-- 0.35 -->
      <g transform="translate(7.2 46.167645)scale(0.1 -0.1)">
       <use xlink:href="#DejaVuSans-48"/>
       <use x="63.623047" xlink:href="#DejaVuSans-46"/>
       <use x="95.410156" xlink:href="#DejaVuSans-51"/>
       <use x="159.033203" xlink:href="#DejaVuSans-53"/>
      </g>
     </g>
    </g>
   </g>
   <g id="patch_81">
    <path d="M 36.465625 269.409034 
L 36.465625 22.318125 
" style="fill:none;stroke:#000000;stroke-linecap:square;stroke-linejoin:miter;stroke-width:0.8;"/>
   </g>
   <g id="patch_82">
    <path d="M 594.465625 269.409034 
L 594.465625 22.318125 
" style="fill:none;stroke:#000000;stroke-linecap:square;stroke-linejoin:miter;stroke-width:0.8;"/>
   </g>
   <g id="patch_83">
    <path d="M 36.465625 269.409034 
L 594.465625 269.409034 
" style="fill:none;stroke:#000000;stroke-linecap:square;stroke-linejoin:miter;stroke-width:0.8;"/>
   </g>
   <g id="patch_84">
    <path d="M 36.465625 22.318125 
L 594.465625 22.318125 
" style="fill:none;stroke:#000000;stroke-linecap:square;stroke-linejoin:miter;stroke-width:0.8;"/>
   </g>
   <g id="text_36">
    <!-- Male -->
    <defs>
     <path d="M 9.8125 72.90625 
L 24.515625 72.90625 
L 43.109375 23.296875 
L 61.8125 72.90625 
L 76.515625 72.90625 
L 76.515625 0 
L 66.890625 0 
L 66.890625 64.015625 
L 48.09375 14.015625 
L 38.1875 14.015625 
L 19.390625 64.015625 
L 19.390625 0 
L 9.8125 0 
z
" id="DejaVuSans-77"/>
    </defs>
    <g transform="translate(301.253125 16.318125)scale(0.12 -0.12)">
     <use xlink:href="#DejaVuSans-77"/>
     <use x="86.279297" xlink:href="#DejaVuSans-97"/>
     <use x="147.558594" xlink:href="#DejaVuSans-108"/>
     <use x="175.341797" xlink:href="#DejaVuSans-101"/>
    </g>
   </g>
   <g id="legend_1">
    <g id="patch_85">
     <path d="M 530.015625 89.030625 
L 587.465625 89.030625 
Q 589.465625 89.030625 589.465625 87.030625 
L 589.465625 29.318125 
Q 589.465625 27.318125 587.465625 27.318125 
L 530.015625 27.318125 
Q 528.015625 27.318125 528.015625 29.318125 
L 528.015625 87.030625 
Q 528.015625 89.030625 530.015625 89.030625 
z
" style="fill:#ffffff;opacity:0.8;stroke:#cccccc;stroke-linejoin:miter;"/>
    </g>
    <g id="text_37">
     <!-- year -->
     <g transform="translate(547.585156 38.916562)scale(0.1 -0.1)">
      <use xlink:href="#DejaVuSans-121"/>
      <use x="59.179688" xlink:href="#DejaVuSans-101"/>
      <use x="120.703125" xlink:href="#DejaVuSans-97"/>
      <use x="181.982422" xlink:href="#DejaVuSans-114"/>
     </g>
    </g>
    <g id="patch_86">
     <path d="M 532.015625 53.594687 
L 552.015625 53.594687 
L 552.015625 46.594687 
L 532.015625 46.594687 
z
" style="fill:#1f77b4;"/>
    </g>
    <g id="text_38">
     <!-- 1910 -->
     <defs>
      <path d="M 10.984375 1.515625 
L 10.984375 10.5 
Q 14.703125 8.734375 18.5 7.8125 
Q 22.3125 6.890625 25.984375 6.890625 
Q 35.75 6.890625 40.890625 13.453125 
Q 46.046875 20.015625 46.78125 33.40625 
Q 43.953125 29.203125 39.59375 26.953125 
Q 35.25 24.703125 29.984375 24.703125 
Q 19.046875 24.703125 12.671875 31.3125 
Q 6.296875 37.9375 6.296875 49.421875 
Q 6.296875 60.640625 12.9375 67.421875 
Q 19.578125 74.21875 30.609375 74.21875 
Q 43.265625 74.21875 49.921875 64.515625 
Q 56.59375 54.828125 56.59375 36.375 
Q 56.59375 19.140625 48.40625 8.859375 
Q 40.234375 -1.421875 26.421875 -1.421875 
Q 22.703125 -1.421875 18.890625 -0.6875 
Q 15.09375 0.046875 10.984375 1.515625 
z
M 30.609375 32.421875 
Q 37.25 32.421875 41.125 36.953125 
Q 45.015625 41.5 45.015625 49.421875 
Q 45.015625 57.28125 41.125 61.84375 
Q 37.25 66.40625 30.609375 66.40625 
Q 23.96875 66.40625 20.09375 61.84375 
Q 16.21875 57.28125 16.21875 49.421875 
Q 16.21875 41.5 20.09375 36.953125 
Q 23.96875 32.421875 30.609375 32.421875 
z
" id="DejaVuSans-57"/>
     </defs>
     <g transform="translate(560.015625 53.594687)scale(0.1 -0.1)">
      <use xlink:href="#DejaVuSans-49"/>
      <use x="63.623047" xlink:href="#DejaVuSans-57"/>
      <use x="127.246094" xlink:href="#DejaVuSans-49"/>
      <use x="190.869141" xlink:href="#DejaVuSans-48"/>
     </g>
    </g>
    <g id="patch_87">
     <path d="M 532.015625 68.272812 
L 552.015625 68.272812 
L 552.015625 61.272812 
L 532.015625 61.272812 
z
" style="fill:#ff7f0e;"/>
    </g>
    <g id="text_39">
     <!-- 1960 -->
     <defs>
      <path d="M 33.015625 40.375 
Q 26.375 40.375 22.484375 35.828125 
Q 18.609375 31.296875 18.609375 23.390625 
Q 18.609375 15.53125 22.484375 10.953125 
Q 26.375 6.390625 33.015625 6.390625 
Q 39.65625 6.390625 43.53125 10.953125 
Q 47.40625 15.53125 47.40625 23.390625 
Q 47.40625 31.296875 43.53125 35.828125 
Q 39.65625 40.375 33.015625 40.375 
z
M 52.59375 71.296875 
L 52.59375 62.3125 
Q 48.875 64.0625 45.09375 64.984375 
Q 41.3125 65.921875 37.59375 65.921875 
Q 27.828125 65.921875 22.671875 59.328125 
Q 17.53125 52.734375 16.796875 39.40625 
Q 19.671875 43.65625 24.015625 45.921875 
Q 28.375 48.1875 33.59375 48.1875 
Q 44.578125 48.1875 50.953125 41.515625 
Q 57.328125 34.859375 57.328125 23.390625 
Q 57.328125 12.15625 50.6875 5.359375 
Q 44.046875 -1.421875 33.015625 -1.421875 
Q 20.359375 -1.421875 13.671875 8.265625 
Q 6.984375 17.96875 6.984375 36.375 
Q 6.984375 53.65625 15.1875 63.9375 
Q 23.390625 74.21875 37.203125 74.21875 
Q 40.921875 74.21875 44.703125 73.484375 
Q 48.484375 72.75 52.59375 71.296875 
z
" id="DejaVuSans-54"/>
     </defs>
     <g transform="translate(560.015625 68.272812)scale(0.1 -0.1)">
      <use xlink:href="#DejaVuSans-49"/>
      <use x="63.623047" xlink:href="#DejaVuSans-57"/>
      <use x="127.246094" xlink:href="#DejaVuSans-54"/>
      <use x="190.869141" xlink:href="#DejaVuSans-48"/>
     </g>
    </g>
    <g id="patch_88">
     <path d="M 532.015625 82.950937 
L 552.015625 82.950937 
L 552.015625 75.950937 
L 532.015625 75.950937 
z
" style="fill:#2ca02c;"/>
    </g>
    <g id="text_40">
     <!-- 2010 -->
     <g transform="translate(560.015625 82.950937)scale(0.1 -0.1)">
      <use xlink:href="#DejaVuSans-50"/>
      <use x="63.623047" xlink:href="#DejaVuSans-48"/>
      <use x="127.246094" xlink:href="#DejaVuSans-49"/>
      <use x="190.869141" xlink:href="#DejaVuSans-48"/>
     </g>
    </g>
   </g>
  </g>
  <g id="axes_2">
   <g id="patch_89">
    <path d="M 36.465625 565.918125 
L 594.465625 565.918125 
L 594.465625 318.827216 
L 36.465625 318.827216 
z
" style="fill:#ffffff;"/>
   </g>
   <g id="patch_90">
    <path clip-path="url(#p5a2ee25d2b)" d="M 41.83101 565.918125 
L 45.407933 565.918125 
L 45.407933 397.165346 
L 41.83101 397.165346 
z
" style="fill:#1f77b4;"/>
   </g>
   <g id="patch_91">
    <path clip-path="url(#p5a2ee25d2b)" d="M 63.292548 565.918125 
L 66.869471 565.918125 
L 66.869471 565.918125 
L 63.292548 565.918125 
z
" style="fill:#1f77b4;"/>
   </g>
   <g id="patch_92">
    <path clip-path="url(#p5a2ee25d2b)" d="M 84.754087 565.918125 
L 88.33101 565.918125 
L 88.33101 565.910339 
L 84.754087 565.910339 
z
" style="fill:#1f77b4;"/>
   </g>
   <g id="patch_93">
    <path clip-path="url(#p5a2ee25d2b)" d="M 106.215625 565.918125 
L 109.792548 565.918125 
L 109.792548 555.407668 
L 106.215625 555.407668 
z
" style="fill:#1f77b4;"/>
   </g>
   <g id="patch_94">
    <path clip-path="url(#p5a2ee25d2b)" d="M 127.677163 565.918125 
L 131.254087 565.918125 
L 131.254087 357.937208 
L 127.677163 357.937208 
z
" style="fill:#1f77b4;"/>
   </g>
   <g id="patch_95">
    <path clip-path="url(#p5a2ee25d2b)" d="M 149.138702 565.918125 
L 152.715625 565.918125 
L 152.715625 565.918125 
L 149.138702 565.918125 
z
" style="fill:#1f77b4;"/>
   </g>
   <g id="patch_96">
    <path clip-path="url(#p5a2ee25d2b)" d="M 170.60024 565.918125 
L 174.177163 565.918125 
L 174.177163 565.82937 
L 170.60024 565.82937 
z
" style="fill:#1f77b4;"/>
   </g>
   <g id="patch_97">
    <path clip-path="url(#p5a2ee25d2b)" d="M 192.061779 565.918125 
L 195.638702 565.918125 
L 195.638702 534.111147 
L 192.061779 534.111147 
z
" style="fill:#1f77b4;"/>
   </g>
   <g id="patch_98">
    <path clip-path="url(#p5a2ee25d2b)" d="M 213.523317 565.918125 
L 217.10024 565.918125 
L 217.10024 564.976077 
L 213.523317 564.976077 
z
" style="fill:#1f77b4;"/>
   </g>
   <g id="patch_99">
    <path clip-path="url(#p5a2ee25d2b)" d="M 234.984856 565.918125 
L 238.561779 565.918125 
L 238.561779 565.918125 
L 234.984856 565.918125 
z
" style="fill:#1f77b4;"/>
   </g>
   <g id="patch_100">
    <path clip-path="url(#p5a2ee25d2b)" d="M 256.446394 565.918125 
L 260.023317 565.918125 
L 260.023317 565.843384 
L 256.446394 565.843384 
z
" style="fill:#1f77b4;"/>
   </g>
   <g id="patch_101">
    <path clip-path="url(#p5a2ee25d2b)" d="M 277.907933 565.918125 
L 281.484856 565.918125 
L 281.484856 539.258936 
L 277.907933 539.258936 
z
" style="fill:#1f77b4;"/>
   </g>
   <g id="patch_102">
    <path clip-path="url(#p5a2ee25d2b)" d="M 299.369471 565.918125 
L 302.946394 565.918125 
L 302.946394 565.176943 
L 299.369471 565.176943 
z
" style="fill:#1f77b4;"/>
   </g>
   <g id="patch_103">
    <path clip-path="url(#p5a2ee25d2b)" d="M 320.83101 565.918125 
L 324.407933 565.918125 
L 324.407933 517.006352 
L 320.83101 517.006352 
z
" style="fill:#1f77b4;"/>
   </g>
   <g id="patch_104">
    <path clip-path="url(#p5a2ee25d2b)" d="M 342.292548 565.918125 
L 345.869471 565.918125 
L 345.869471 564.89355 
L 342.292548 564.89355 
z
" style="fill:#1f77b4;"/>
   </g>
   <g id="patch_105">
    <path clip-path="url(#p5a2ee25d2b)" d="M 363.754087 565.918125 
L 367.33101 565.918125 
L 367.33101 565.907225 
L 363.754087 565.907225 
z
" style="fill:#1f77b4;"/>
   </g>
   <g id="patch_106">
    <path clip-path="url(#p5a2ee25d2b)" d="M 385.215625 565.918125 
L 388.792548 565.918125 
L 388.792548 565.918125 
L 385.215625 565.918125 
z
" style="fill:#1f77b4;"/>
   </g>
   <g id="patch_107">
    <path clip-path="url(#p5a2ee25d2b)" d="M 406.677163 565.918125 
L 410.254087 565.918125 
L 410.254087 557.653013 
L 406.677163 557.653013 
z
" style="fill:#1f77b4;"/>
   </g>
   <g id="patch_108">
    <path clip-path="url(#p5a2ee25d2b)" d="M 428.138702 565.918125 
L 431.715625 565.918125 
L 431.715625 541.818816 
L 428.138702 541.818816 
z
" style="fill:#1f77b4;"/>
   </g>
   <g id="patch_109">
    <path clip-path="url(#p5a2ee25d2b)" d="M 449.60024 565.918125 
L 453.177163 565.918125 
L 453.177163 548.981497 
L 449.60024 548.981497 
z
" style="fill:#1f77b4;"/>
   </g>
   <g id="patch_110">
    <path clip-path="url(#p5a2ee25d2b)" d="M 471.061779 565.918125 
L 474.638702 565.918125 
L 474.638702 565.49615 
L 471.061779 565.49615 
z
" style="fill:#1f77b4;"/>
   </g>
   <g id="patch_111">
    <path clip-path="url(#p5a2ee25d2b)" d="M 492.523317 565.918125 
L 496.10024 565.918125 
L 496.10024 565.918125 
L 492.523317 565.918125 
z
" style="fill:#1f77b4;"/>
   </g>
   <g id="patch_112">
    <path clip-path="url(#p5a2ee25d2b)" d="M 513.984856 565.918125 
L 517.561779 565.918125 
L 517.561779 565.905668 
L 513.984856 565.905668 
z
" style="fill:#1f77b4;"/>
   </g>
   <g id="patch_113">
    <path clip-path="url(#p5a2ee25d2b)" d="M 535.446394 565.918125 
L 539.023317 565.918125 
L 539.023317 565.908782 
L 535.446394 565.908782 
z
" style="fill:#1f77b4;"/>
   </g>
   <g id="patch_114">
    <path clip-path="url(#p5a2ee25d2b)" d="M 556.907933 565.918125 
L 560.484856 565.918125 
L 560.484856 497.419532 
L 556.907933 497.419532 
z
" style="fill:#1f77b4;"/>
   </g>
   <g id="patch_115">
    <path clip-path="url(#p5a2ee25d2b)" d="M 578.369471 565.918125 
L 581.946394 565.918125 
L 581.946394 564.412405 
L 578.369471 564.412405 
z
" style="fill:#1f77b4;"/>
   </g>
   <g id="patch_116">
    <path clip-path="url(#p5a2ee25d2b)" d="M 45.407933 565.918125 
L 48.984856 565.918125 
L 48.984856 354.90582 
L 45.407933 354.90582 
z
" style="fill:#ff7f0e;"/>
   </g>
   <g id="patch_117">
    <path clip-path="url(#p5a2ee25d2b)" d="M 66.869471 565.918125 
L 70.446394 565.918125 
L 70.446394 565.706272 
L 66.869471 565.706272 
z
" style="fill:#ff7f0e;"/>
   </g>
   <g id="patch_118">
    <path clip-path="url(#p5a2ee25d2b)" d="M 88.33101 565.918125 
L 91.907933 565.918125 
L 91.907933 565.903167 
L 88.33101 565.903167 
z
" style="fill:#ff7f0e;"/>
   </g>
   <g id="patch_119">
    <path clip-path="url(#p5a2ee25d2b)" d="M 109.792548 565.918125 
L 113.369471 565.918125 
L 113.369471 564.779798 
L 109.792548 564.779798 
z
" style="fill:#ff7f0e;"/>
   </g>
   <g id="patch_120">
    <path clip-path="url(#p5a2ee25d2b)" d="M 131.254087 565.918125 
L 134.83101 565.918125 
L 134.83101 433.124643 
L 131.254087 433.124643 
z
" style="fill:#ff7f0e;"/>
   </g>
   <g id="patch_121">
    <path clip-path="url(#p5a2ee25d2b)" d="M 152.715625 565.918125 
L 156.292548 565.918125 
L 156.292548 565.91202 
L 152.715625 565.91202 
z
" style="fill:#ff7f0e;"/>
   </g>
   <g id="patch_122">
    <path clip-path="url(#p5a2ee25d2b)" d="M 174.177163 565.918125 
L 177.754087 565.918125 
L 177.754087 565.821051 
L 174.177163 565.821051 
z
" style="fill:#ff7f0e;"/>
   </g>
   <g id="patch_123">
    <path clip-path="url(#p5a2ee25d2b)" d="M 195.638702 565.918125 
L 199.215625 565.918125 
L 199.215625 543.558508 
L 195.638702 543.558508 
z
" style="fill:#ff7f0e;"/>
   </g>
   <g id="patch_124">
    <path clip-path="url(#p5a2ee25d2b)" d="M 217.10024 565.918125 
L 220.677163 565.918125 
L 220.677163 541.249191 
L 217.10024 541.249191 
z
" style="fill:#ff7f0e;"/>
   </g>
   <g id="patch_125">
    <path clip-path="url(#p5a2ee25d2b)" d="M 238.561779 565.918125 
L 242.138702 565.918125 
L 242.138702 565.918125 
L 238.561779 565.918125 
z
" style="fill:#ff7f0e;"/>
   </g>
   <g id="patch_126">
    <path clip-path="url(#p5a2ee25d2b)" d="M 260.023317 565.918125 
L 263.60024 565.918125 
L 263.60024 565.821967 
L 260.023317 565.821967 
z
" style="fill:#ff7f0e;"/>
   </g>
   <g id="patch_127">
    <path clip-path="url(#p5a2ee25d2b)" d="M 281.484856 565.918125 
L 285.061779 565.918125 
L 285.061779 545.013087 
L 281.484856 545.013087 
z
" style="fill:#ff7f0e;"/>
   </g>
   <g id="patch_128">
    <path clip-path="url(#p5a2ee25d2b)" d="M 302.946394 565.918125 
L 306.523317 565.918125 
L 306.523317 560.601355 
L 302.946394 560.601355 
z
" style="fill:#ff7f0e;"/>
   </g>
   <g id="patch_129">
    <path clip-path="url(#p5a2ee25d2b)" d="M 324.407933 565.918125 
L 327.984856 565.918125 
L 327.984856 485.249869 
L 324.407933 485.249869 
z
" style="fill:#ff7f0e;"/>
   </g>
   <g id="patch_130">
    <path clip-path="url(#p5a2ee25d2b)" d="M 345.869471 565.918125 
L 349.446394 565.918125 
L 349.446394 564.412567 
L 345.869471 564.412567 
z
" style="fill:#ff7f0e;"/>
   </g>
   <g id="patch_131">
    <path clip-path="url(#p5a2ee25d2b)" d="M 367.33101 565.918125 
L 370.907933 565.918125 
L 370.907933 565.903778 
L 367.33101 565.903778 
z
" style="fill:#ff7f0e;"/>
   </g>
   <g id="patch_132">
    <path clip-path="url(#p5a2ee25d2b)" d="M 388.792548 565.918125 
L 392.369471 565.918125 
L 392.369471 565.918125 
L 388.792548 565.918125 
z
" style="fill:#ff7f0e;"/>
   </g>
   <g id="patch_133">
    <path clip-path="url(#p5a2ee25d2b)" d="M 410.254087 565.918125 
L 413.83101 565.918125 
L 413.83101 561.74304 
L 410.254087 561.74304 
z
" style="fill:#ff7f0e;"/>
   </g>
   <g id="patch_134">
    <path clip-path="url(#p5a2ee25d2b)" d="M 431.715625 565.918125 
L 435.292548 565.918125 
L 435.292548 558.039281 
L 431.715625 558.039281 
z
" style="fill:#ff7f0e;"/>
   </g>
   <g id="patch_135">
    <path clip-path="url(#p5a2ee25d2b)" d="M 453.177163 565.918125 
L 456.754087 565.918125 
L 456.754087 556.534943 
L 453.177163 556.534943 
z
" style="fill:#ff7f0e;"/>
   </g>
   <g id="patch_136">
    <path clip-path="url(#p5a2ee25d2b)" d="M 474.638702 565.918125 
L 478.215625 565.918125 
L 478.215625 565.563714 
L 474.638702 565.563714 
z
" style="fill:#ff7f0e;"/>
   </g>
   <g id="patch_137">
    <path clip-path="url(#p5a2ee25d2b)" d="M 496.10024 565.918125 
L 499.677163 565.918125 
L 499.677163 565.880883 
L 496.10024 565.880883 
z
" style="fill:#ff7f0e;"/>
   </g>
   <g id="patch_138">
    <path clip-path="url(#p5a2ee25d2b)" d="M 517.561779 565.918125 
L 521.138702 565.918125 
L 521.138702 565.898893 
L 517.561779 565.898893 
z
" style="fill:#ff7f0e;"/>
   </g>
   <g id="patch_139">
    <path clip-path="url(#p5a2ee25d2b)" d="M 539.023317 565.918125 
L 542.60024 565.918125 
L 542.60024 565.895536 
L 539.023317 565.895536 
z
" style="fill:#ff7f0e;"/>
   </g>
   <g id="patch_140">
    <path clip-path="url(#p5a2ee25d2b)" d="M 560.484856 565.918125 
L 564.061779 565.918125 
L 564.061779 471.743192 
L 560.484856 471.743192 
z
" style="fill:#ff7f0e;"/>
   </g>
   <g id="patch_141">
    <path clip-path="url(#p5a2ee25d2b)" d="M 581.946394 565.918125 
L 585.523317 565.918125 
L 585.523317 565.511209 
L 581.946394 565.511209 
z
" style="fill:#ff7f0e;"/>
   </g>
   <g id="patch_142">
    <path clip-path="url(#p5a2ee25d2b)" d="M 48.984856 565.918125 
L 52.561779 565.918125 
L 52.561779 330.59345 
L 48.984856 330.59345 
z
" style="fill:#2ca02c;"/>
   </g>
   <g id="patch_143">
    <path clip-path="url(#p5a2ee25d2b)" d="M 70.446394 565.918125 
L 74.023317 565.918125 
L 74.023317 565.760214 
L 70.446394 565.760214 
z
" style="fill:#2ca02c;"/>
   </g>
   <g id="patch_144">
    <path clip-path="url(#p5a2ee25d2b)" d="M 91.907933 565.918125 
L 95.484856 565.918125 
L 95.484856 565.58616 
L 91.907933 565.58616 
z
" style="fill:#2ca02c;"/>
   </g>
   <g id="patch_145">
    <path clip-path="url(#p5a2ee25d2b)" d="M 113.369471 565.918125 
L 116.946394 565.918125 
L 116.946394 565.003292 
L 113.369471 565.003292 
z
" style="fill:#2ca02c;"/>
   </g>
   <g id="patch_146">
    <path clip-path="url(#p5a2ee25d2b)" d="M 134.83101 565.918125 
L 138.407933 565.918125 
L 138.407933 455.789735 
L 134.83101 455.789735 
z
" style="fill:#2ca02c;"/>
   </g>
   <g id="patch_147">
    <path clip-path="url(#p5a2ee25d2b)" d="M 156.292548 565.918125 
L 159.869471 565.918125 
L 159.869471 565.884086 
L 156.292548 565.884086 
z
" style="fill:#2ca02c;"/>
   </g>
   <g id="patch_148">
    <path clip-path="url(#p5a2ee25d2b)" d="M 177.754087 565.918125 
L 181.33101 565.918125 
L 181.33101 565.687575 
L 177.754087 565.687575 
z
" style="fill:#2ca02c;"/>
   </g>
   <g id="patch_149">
    <path clip-path="url(#p5a2ee25d2b)" d="M 199.215625 565.918125 
L 202.792548 565.918125 
L 202.792548 519.097777 
L 199.215625 519.097777 
z
" style="fill:#2ca02c;"/>
   </g>
   <g id="patch_150">
    <path clip-path="url(#p5a2ee25d2b)" d="M 220.677163 565.918125 
L 224.254087 565.918125 
L 224.254087 546.330106 
L 220.677163 546.330106 
z
" style="fill:#2ca02c;"/>
   </g>
   <g id="patch_151">
    <path clip-path="url(#p5a2ee25d2b)" d="M 242.138702 565.918125 
L 245.715625 565.918125 
L 245.715625 565.86233 
L 242.138702 565.86233 
z
" style="fill:#2ca02c;"/>
   </g>
   <g id="patch_152">
    <path clip-path="url(#p5a2ee25d2b)" d="M 263.60024 565.918125 
L 267.177163 565.918125 
L 267.177163 565.698453 
L 263.60024 565.698453 
z
" style="fill:#2ca02c;"/>
   </g>
   <g id="patch_153">
    <path clip-path="url(#p5a2ee25d2b)" d="M 285.061779 565.918125 
L 288.638702 565.918125 
L 288.638702 549.649752 
L 285.061779 549.649752 
z
" style="fill:#2ca02c;"/>
   </g>
   <g id="patch_154">
    <path clip-path="url(#p5a2ee25d2b)" d="M 306.523317 565.918125 
L 310.10024 565.918125 
L 310.10024 564.320765 
L 306.523317 564.320765 
z
" style="fill:#2ca02c;"/>
   </g>
   <g id="patch_155">
    <path clip-path="url(#p5a2ee25d2b)" d="M 327.984856 565.918125 
L 331.561779 565.918125 
L 331.561779 479.371857 
L 327.984856 479.371857 
z
" style="fill:#2ca02c;"/>
   </g>
   <g id="patch_156">
    <path clip-path="url(#p5a2ee25d2b)" d="M 349.446394 565.918125 
L 353.023317 565.918125 
L 353.023317 565.150676 
L 349.446394 565.150676 
z
" style="fill:#2ca02c;"/>
   </g>
   <g id="patch_157">
    <path clip-path="url(#p5a2ee25d2b)" d="M 370.907933 565.918125 
L 374.484856 565.918125 
L 374.484856 565.905843 
L 370.907933 565.905843 
z
" style="fill:#2ca02c;"/>
   </g>
   <g id="patch_158">
    <path clip-path="url(#p5a2ee25d2b)" d="M 392.369471 565.918125 
L 395.946394 565.918125 
L 395.946394 565.899527 
L 392.369471 565.899527 
z
" style="fill:#2ca02c;"/>
   </g>
   <g id="patch_159">
    <path clip-path="url(#p5a2ee25d2b)" d="M 413.83101 565.918125 
L 417.407933 565.918125 
L 417.407933 554.791695 
L 413.83101 554.791695 
z
" style="fill:#2ca02c;"/>
   </g>
   <g id="patch_160">
    <path clip-path="url(#p5a2ee25d2b)" d="M 435.292548 565.918125 
L 438.869471 565.918125 
L 438.869471 557.688841 
L 435.292548 557.688841 
z
" style="fill:#2ca02c;"/>
   </g>
   <g id="patch_161">
    <path clip-path="url(#p5a2ee25d2b)" d="M 456.754087 565.918125 
L 460.33101 565.918125 
L 460.33101 561.084987 
L 456.754087 561.084987 
z
" style="fill:#2ca02c;"/>
   </g>
   <g id="patch_162">
    <path clip-path="url(#p5a2ee25d2b)" d="M 478.215625 565.918125 
L 481.792548 565.918125 
L 481.792548 565.660554 
L 478.215625 565.660554 
z
" style="fill:#2ca02c;"/>
   </g>
   <g id="patch_163">
    <path clip-path="url(#p5a2ee25d2b)" d="M 499.677163 565.918125 
L 503.254087 565.918125 
L 503.254087 565.846188 
L 499.677163 565.846188 
z
" style="fill:#2ca02c;"/>
   </g>
   <g id="patch_164">
    <path clip-path="url(#p5a2ee25d2b)" d="M 521.138702 565.918125 
L 524.715625 565.918125 
L 524.715625 565.188224 
L 521.138702 565.188224 
z
" style="fill:#2ca02c;"/>
   </g>
   <g id="patch_165">
    <path clip-path="url(#p5a2ee25d2b)" d="M 542.60024 565.918125 
L 546.177163 565.918125 
L 546.177163 565.469306 
L 542.60024 565.469306 
z
" style="fill:#2ca02c;"/>
   </g>
   <g id="patch_166">
    <path clip-path="url(#p5a2ee25d2b)" d="M 564.061779 565.918125 
L 567.638702 565.918125 
L 567.638702 493.804949 
L 564.061779 493.804949 
z
" style="fill:#2ca02c;"/>
   </g>
   <g id="patch_167">
    <path clip-path="url(#p5a2ee25d2b)" d="M 585.523317 565.918125 
L 589.10024 565.918125 
L 589.10024 565.483693 
L 585.523317 565.483693 
z
" style="fill:#2ca02c;"/>
   </g>
   <g id="matplotlib.axis_3">
    <g id="xtick_27">
     <g id="line2d_35">
      <g>
       <use style="stroke:#000000;stroke-width:0.8;" x="47.196394" xlink:href="#m4fbc019454" y="565.918125"/>
      </g>
     </g>
     <g id="text_41">
      <!-- a -->
      <g transform="translate(44.132332 580.516562)scale(0.1 -0.1)">
       <use xlink:href="#DejaVuSans-97"/>
      </g>
     </g>
    </g>
    <g id="xtick_28">
     <g id="line2d_36">
      <g>
       <use style="stroke:#000000;stroke-width:0.8;" x="68.657933" xlink:href="#m4fbc019454" y="565.918125"/>
      </g>
     </g>
     <g id="text_42">
      <!-- b -->
      <g transform="translate(65.483714 580.516562)scale(0.1 -0.1)">
       <use xlink:href="#DejaVuSans-98"/>
      </g>
     </g>
    </g>
    <g id="xtick_29">
     <g id="line2d_37">
      <g>
       <use style="stroke:#000000;stroke-width:0.8;" x="90.119471" xlink:href="#m4fbc019454" y="565.918125"/>
      </g>
     </g>
     <g id="text_43">
      <!-- c -->
      <g transform="translate(87.370252 580.516562)scale(0.1 -0.1)">
       <use xlink:href="#DejaVuSans-99"/>
      </g>
     </g>
    </g>
    <g id="xtick_30">
     <g id="line2d_38">
      <g>
       <use style="stroke:#000000;stroke-width:0.8;" x="111.58101" xlink:href="#m4fbc019454" y="565.918125"/>
      </g>
     </g>
     <g id="text_44">
      <!-- d -->
      <g transform="translate(108.406791 580.516562)scale(0.1 -0.1)">
       <use xlink:href="#DejaVuSans-100"/>
      </g>
     </g>
    </g>
    <g id="xtick_31">
     <g id="line2d_39">
      <g>
       <use style="stroke:#000000;stroke-width:0.8;" x="133.042548" xlink:href="#m4fbc019454" y="565.918125"/>
      </g>
     </g>
     <g id="text_45">
      <!-- e -->
      <g transform="translate(129.965986 580.516562)scale(0.1 -0.1)">
       <use xlink:href="#DejaVuSans-101"/>
      </g>
     </g>
    </g>
    <g id="xtick_32">
     <g id="line2d_40">
      <g>
       <use style="stroke:#000000;stroke-width:0.8;" x="154.504087" xlink:href="#m4fbc019454" y="565.918125"/>
      </g>
     </g>
     <g id="text_46">
      <!-- f -->
      <g transform="translate(152.74393 580.516562)scale(0.1 -0.1)">
       <use xlink:href="#DejaVuSans-102"/>
      </g>
     </g>
    </g>
    <g id="xtick_33">
     <g id="line2d_41">
      <g>
       <use style="stroke:#000000;stroke-width:0.8;" x="175.965625" xlink:href="#m4fbc019454" y="565.918125"/>
      </g>
     </g>
     <g id="text_47">
      <!-- g -->
      <g transform="translate(172.791406 580.516562)scale(0.1 -0.1)">
       <use xlink:href="#DejaVuSans-103"/>
      </g>
     </g>
    </g>
    <g id="xtick_34">
     <g id="line2d_42">
      <g>
       <use style="stroke:#000000;stroke-width:0.8;" x="197.427163" xlink:href="#m4fbc019454" y="565.918125"/>
      </g>
     </g>
     <g id="text_48">
      <!-- h -->
      <g transform="translate(194.258413 580.516562)scale(0.1 -0.1)">
       <use xlink:href="#DejaVuSans-104"/>
      </g>
     </g>
    </g>
    <g id="xtick_35">
     <g id="line2d_43">
      <g>
       <use style="stroke:#000000;stroke-width:0.8;" x="218.888702" xlink:href="#m4fbc019454" y="565.918125"/>
      </g>
     </g>
     <g id="text_49">
      <!-- i -->
      <g transform="translate(217.499639 580.516562)scale(0.1 -0.1)">
       <use xlink:href="#DejaVuSans-105"/>
      </g>
     </g>
    </g>
    <g id="xtick_36">
     <g id="line2d_44">
      <g>
       <use style="stroke:#000000;stroke-width:0.8;" x="240.35024" xlink:href="#m4fbc019454" y="565.918125"/>
      </g>
     </g>
     <g id="text_50">
      <!-- j -->
      <g transform="translate(238.961178 580.516562)scale(0.1 -0.1)">
       <use xlink:href="#DejaVuSans-106"/>
      </g>
     </g>
    </g>
    <g id="xtick_37">
     <g id="line2d_45">
      <g>
       <use style="stroke:#000000;stroke-width:0.8;" x="261.811779" xlink:href="#m4fbc019454" y="565.918125"/>
      </g>
     </g>
     <g id="text_51">
      <!-- k -->
      <g transform="translate(258.916466 580.516562)scale(0.1 -0.1)">
       <use xlink:href="#DejaVuSans-107"/>
      </g>
     </g>
    </g>
    <g id="xtick_38">
     <g id="line2d_46">
      <g>
       <use style="stroke:#000000;stroke-width:0.8;" x="283.273317" xlink:href="#m4fbc019454" y="565.918125"/>
      </g>
     </g>
     <g id="text_52">
      <!-- l -->
      <g transform="translate(281.884255 580.516562)scale(0.1 -0.1)">
       <use xlink:href="#DejaVuSans-108"/>
      </g>
     </g>
    </g>
    <g id="xtick_39">
     <g id="line2d_47">
      <g>
       <use style="stroke:#000000;stroke-width:0.8;" x="304.734856" xlink:href="#m4fbc019454" y="565.918125"/>
      </g>
     </g>
     <g id="text_53">
      <!-- m -->
      <g transform="translate(299.864543 580.516562)scale(0.1 -0.1)">
       <use xlink:href="#DejaVuSans-109"/>
      </g>
     </g>
    </g>
    <g id="xtick_40">
     <g id="line2d_48">
      <g>
       <use style="stroke:#000000;stroke-width:0.8;" x="326.196394" xlink:href="#m4fbc019454" y="565.918125"/>
      </g>
     </g>
     <g id="text_54">
      <!-- n -->
      <g transform="translate(323.027644 580.516562)scale(0.1 -0.1)">
       <use xlink:href="#DejaVuSans-110"/>
      </g>
     </g>
    </g>
    <g id="xtick_41">
     <g id="line2d_49">
      <g>
       <use style="stroke:#000000;stroke-width:0.8;" x="347.657933" xlink:href="#m4fbc019454" y="565.918125"/>
      </g>
     </g>
     <g id="text_55">
      <!-- o -->
      <g transform="translate(344.598558 580.516562)scale(0.1 -0.1)">
       <use xlink:href="#DejaVuSans-111"/>
      </g>
     </g>
    </g>
    <g id="xtick_42">
     <g id="line2d_50">
      <g>
       <use style="stroke:#000000;stroke-width:0.8;" x="369.119471" xlink:href="#m4fbc019454" y="565.918125"/>
      </g>
     </g>
     <g id="text_56">
      <!-- p -->
      <g transform="translate(365.945252 580.516562)scale(0.1 -0.1)">
       <use xlink:href="#DejaVuSans-112"/>
      </g>
     </g>
    </g>
    <g id="xtick_43">
     <g id="line2d_51">
      <g>
       <use style="stroke:#000000;stroke-width:0.8;" x="390.58101" xlink:href="#m4fbc019454" y="565.918125"/>
      </g>
     </g>
     <g id="text_57">
      <!-- q -->
      <g transform="translate(387.406791 580.516562)scale(0.1 -0.1)">
       <use xlink:href="#DejaVuSans-113"/>
      </g>
     </g>
    </g>
    <g id="xtick_44">
     <g id="line2d_52">
      <g>
       <use style="stroke:#000000;stroke-width:0.8;" x="412.042548" xlink:href="#m4fbc019454" y="565.918125"/>
      </g>
     </g>
     <g id="text_58">
      <!-- r -->
      <g transform="translate(409.987079 580.516562)scale(0.1 -0.1)">
       <use xlink:href="#DejaVuSans-114"/>
      </g>
     </g>
    </g>
    <g id="xtick_45">
     <g id="line2d_53">
      <g>
       <use style="stroke:#000000;stroke-width:0.8;" x="433.504087" xlink:href="#m4fbc019454" y="565.918125"/>
      </g>
     </g>
     <g id="text_59">
      <!-- s -->
      <g transform="translate(430.899399 580.516562)scale(0.1 -0.1)">
       <use xlink:href="#DejaVuSans-115"/>
      </g>
     </g>
    </g>
    <g id="xtick_46">
     <g id="line2d_54">
      <g>
       <use style="stroke:#000000;stroke-width:0.8;" x="454.965625" xlink:href="#m4fbc019454" y="565.918125"/>
      </g>
     </g>
     <g id="text_60">
      <!-- t -->
      <g transform="translate(453.005469 580.516562)scale(0.1 -0.1)">
       <use xlink:href="#DejaVuSans-116"/>
      </g>
     </g>
    </g>
    <g id="xtick_47">
     <g id="line2d_55">
      <g>
       <use style="stroke:#000000;stroke-width:0.8;" x="476.427163" xlink:href="#m4fbc019454" y="565.918125"/>
      </g>
     </g>
     <g id="text_61">
      <!-- u -->
      <g transform="translate(473.258413 580.516562)scale(0.1 -0.1)">
       <use xlink:href="#DejaVuSans-117"/>
      </g>
     </g>
    </g>
    <g id="xtick_48">
     <g id="line2d_56">
      <g>
       <use style="stroke:#000000;stroke-width:0.8;" x="497.888702" xlink:href="#m4fbc019454" y="565.918125"/>
      </g>
     </g>
     <g id="text_62">
      <!-- v -->
      <g transform="translate(494.929327 580.516562)scale(0.1 -0.1)">
       <use xlink:href="#DejaVuSans-118"/>
      </g>
     </g>
    </g>
    <g id="xtick_49">
     <g id="line2d_57">
      <g>
       <use style="stroke:#000000;stroke-width:0.8;" x="519.35024" xlink:href="#m4fbc019454" y="565.918125"/>
      </g>
     </g>
     <g id="text_63">
      <!-- w -->
      <g transform="translate(515.261178 580.516562)scale(0.1 -0.1)">
       <use xlink:href="#DejaVuSans-119"/>
      </g>
     </g>
    </g>
    <g id="xtick_50">
     <g id="line2d_58">
      <g>
       <use style="stroke:#000000;stroke-width:0.8;" x="540.811779" xlink:href="#m4fbc019454" y="565.918125"/>
      </g>
     </g>
     <g id="text_64">
      <!-- x -->
      <g transform="translate(537.852404 580.516562)scale(0.1 -0.1)">
       <use xlink:href="#DejaVuSans-120"/>
      </g>
     </g>
    </g>
    <g id="xtick_51">
     <g id="line2d_59">
      <g>
       <use style="stroke:#000000;stroke-width:0.8;" x="562.273317" xlink:href="#m4fbc019454" y="565.918125"/>
      </g>
     </g>
     <g id="text_65">
      <!-- y -->
      <g transform="translate(559.313942 580.516562)scale(0.1 -0.1)">
       <use xlink:href="#DejaVuSans-121"/>
      </g>
     </g>
    </g>
    <g id="xtick_52">
     <g id="line2d_60">
      <g>
       <use style="stroke:#000000;stroke-width:0.8;" x="583.734856" xlink:href="#m4fbc019454" y="565.918125"/>
      </g>
     </g>
     <g id="text_66">
      <!-- z -->
      <g transform="translate(581.110637 580.516562)scale(0.1 -0.1)">
       <use xlink:href="#DejaVuSans-122"/>
      </g>
     </g>
    </g>
    <g id="text_67">
     <!-- last_letter -->
     <g transform="translate(290.429688 594.194687)scale(0.1 -0.1)">
      <use xlink:href="#DejaVuSans-108"/>
      <use x="27.783203" xlink:href="#DejaVuSans-97"/>
      <use x="89.0625" xlink:href="#DejaVuSans-115"/>
      <use x="141.162109" xlink:href="#DejaVuSans-116"/>
      <use x="180.371094" xlink:href="#DejaVuSans-95"/>
      <use x="230.371094" xlink:href="#DejaVuSans-108"/>
      <use x="258.154297" xlink:href="#DejaVuSans-101"/>
      <use x="319.677734" xlink:href="#DejaVuSans-116"/>
      <use x="358.886719" xlink:href="#DejaVuSans-116"/>
      <use x="398.095703" xlink:href="#DejaVuSans-101"/>
      <use x="459.619141" xlink:href="#DejaVuSans-114"/>
     </g>
    </g>
   </g>
   <g id="matplotlib.axis_4">
    <g id="ytick_9">
     <g id="line2d_61">
      <g>
       <use style="stroke:#000000;stroke-width:0.8;" x="36.465625" xlink:href="#me6368b69d2" y="565.918125"/>
      </g>
     </g>
     <g id="text_68">
      <!-- 0.00 -->
      <g transform="translate(7.2 569.717344)scale(0.1 -0.1)">
       <use xlink:href="#DejaVuSans-48"/>
       <use x="63.623047" xlink:href="#DejaVuSans-46"/>
       <use x="95.410156" xlink:href="#DejaVuSans-48"/>
       <use x="159.033203" xlink:href="#DejaVuSans-48"/>
      </g>
     </g>
    </g>
    <g id="ytick_10">
     <g id="line2d_62">
      <g>
       <use style="stroke:#000000;stroke-width:0.8;" x="36.465625" xlink:href="#me6368b69d2" y="535.055064"/>
      </g>
     </g>
     <g id="text_69">
      <!-- 0.05 -->
      <g transform="translate(7.2 538.854283)scale(0.1 -0.1)">
       <use xlink:href="#DejaVuSans-48"/>
       <use x="63.623047" xlink:href="#DejaVuSans-46"/>
       <use x="95.410156" xlink:href="#DejaVuSans-48"/>
       <use x="159.033203" xlink:href="#DejaVuSans-53"/>
      </g>
     </g>
    </g>
    <g id="ytick_11">
     <g id="line2d_63">
      <g>
       <use style="stroke:#000000;stroke-width:0.8;" x="36.465625" xlink:href="#me6368b69d2" y="504.192003"/>
      </g>
     </g>
     <g id="text_70">
      <!-- 0.10 -->
      <g transform="translate(7.2 507.991222)scale(0.1 -0.1)">
       <use xlink:href="#DejaVuSans-48"/>
       <use x="63.623047" xlink:href="#DejaVuSans-46"/>
       <use x="95.410156" xlink:href="#DejaVuSans-49"/>
       <use x="159.033203" xlink:href="#DejaVuSans-48"/>
      </g>
     </g>
    </g>
    <g id="ytick_12">
     <g id="line2d_64">
      <g>
       <use style="stroke:#000000;stroke-width:0.8;" x="36.465625" xlink:href="#me6368b69d2" y="473.328943"/>
      </g>
     </g>
     <g id="text_71">
      <!-- 0.15 -->
      <g transform="translate(7.2 477.128161)scale(0.1 -0.1)">
       <use xlink:href="#DejaVuSans-48"/>
       <use x="63.623047" xlink:href="#DejaVuSans-46"/>
       <use x="95.410156" xlink:href="#DejaVuSans-49"/>
       <use x="159.033203" xlink:href="#DejaVuSans-53"/>
      </g>
     </g>
    </g>
    <g id="ytick_13">
     <g id="line2d_65">
      <g>
       <use style="stroke:#000000;stroke-width:0.8;" x="36.465625" xlink:href="#me6368b69d2" y="442.465882"/>
      </g>
     </g>
     <g id="text_72">
      <!-- 0.20 -->
      <g transform="translate(7.2 446.265101)scale(0.1 -0.1)">
       <use xlink:href="#DejaVuSans-48"/>
       <use x="63.623047" xlink:href="#DejaVuSans-46"/>
       <use x="95.410156" xlink:href="#DejaVuSans-50"/>
       <use x="159.033203" xlink:href="#DejaVuSans-48"/>
      </g>
     </g>
    </g>
    <g id="ytick_14">
     <g id="line2d_66">
      <g>
       <use style="stroke:#000000;stroke-width:0.8;" x="36.465625" xlink:href="#me6368b69d2" y="411.602821"/>
      </g>
     </g>
     <g id="text_73">
      <!-- 0.25 -->
      <g transform="translate(7.2 415.40204)scale(0.1 -0.1)">
       <use xlink:href="#DejaVuSans-48"/>
       <use x="63.623047" xlink:href="#DejaVuSans-46"/>
       <use x="95.410156" xlink:href="#DejaVuSans-50"/>
       <use x="159.033203" xlink:href="#DejaVuSans-53"/>
      </g>
     </g>
    </g>
    <g id="ytick_15">
     <g id="line2d_67">
      <g>
       <use style="stroke:#000000;stroke-width:0.8;" x="36.465625" xlink:href="#me6368b69d2" y="380.73976"/>
      </g>
     </g>
     <g id="text_74">
      <!-- 0.30 -->
      <g transform="translate(7.2 384.538979)scale(0.1 -0.1)">
       <use xlink:href="#DejaVuSans-48"/>
       <use x="63.623047" xlink:href="#DejaVuSans-46"/>
       <use x="95.410156" xlink:href="#DejaVuSans-51"/>
       <use x="159.033203" xlink:href="#DejaVuSans-48"/>
      </g>
     </g>
    </g>
    <g id="ytick_16">
     <g id="line2d_68">
      <g>
       <use style="stroke:#000000;stroke-width:0.8;" x="36.465625" xlink:href="#me6368b69d2" y="349.8767"/>
      </g>
     </g>
     <g id="text_75">
      <!-- 0.35 -->
      <g transform="translate(7.2 353.675918)scale(0.1 -0.1)">
       <use xlink:href="#DejaVuSans-48"/>
       <use x="63.623047" xlink:href="#DejaVuSans-46"/>
       <use x="95.410156" xlink:href="#DejaVuSans-51"/>
       <use x="159.033203" xlink:href="#DejaVuSans-53"/>
      </g>
     </g>
    </g>
    <g id="ytick_17">
     <g id="line2d_69">
      <g>
       <use style="stroke:#000000;stroke-width:0.8;" x="36.465625" xlink:href="#me6368b69d2" y="319.013639"/>
      </g>
     </g>
     <g id="text_76">
      <!-- 0.40 -->
      <defs>
       <path d="M 37.796875 64.3125 
L 12.890625 25.390625 
L 37.796875 25.390625 
z
M 35.203125 72.90625 
L 47.609375 72.90625 
L 47.609375 25.390625 
L 58.015625 25.390625 
L 58.015625 17.1875 
L 47.609375 17.1875 
L 47.609375 0 
L 37.796875 0 
L 37.796875 17.1875 
L 4.890625 17.1875 
L 4.890625 26.703125 
z
" id="DejaVuSans-52"/>
      </defs>
      <g transform="translate(7.2 322.812858)scale(0.1 -0.1)">
       <use xlink:href="#DejaVuSans-48"/>
       <use x="63.623047" xlink:href="#DejaVuSans-46"/>
       <use x="95.410156" xlink:href="#DejaVuSans-52"/>
       <use x="159.033203" xlink:href="#DejaVuSans-48"/>
      </g>
     </g>
    </g>
   </g>
   <g id="patch_168">
    <path d="M 36.465625 565.918125 
L 36.465625 318.827216 
" style="fill:none;stroke:#000000;stroke-linecap:square;stroke-linejoin:miter;stroke-width:0.8;"/>
   </g>
   <g id="patch_169">
    <path d="M 594.465625 565.918125 
L 594.465625 318.827216 
" style="fill:none;stroke:#000000;stroke-linecap:square;stroke-linejoin:miter;stroke-width:0.8;"/>
   </g>
   <g id="patch_170">
    <path d="M 36.465625 565.918125 
L 594.465625 565.918125 
" style="fill:none;stroke:#000000;stroke-linecap:square;stroke-linejoin:miter;stroke-width:0.8;"/>
   </g>
   <g id="patch_171">
    <path d="M 36.465625 318.827216 
L 594.465625 318.827216 
" style="fill:none;stroke:#000000;stroke-linecap:square;stroke-linejoin:miter;stroke-width:0.8;"/>
   </g>
   <g id="text_77">
    <!-- Female -->
    <defs>
     <path d="M 9.8125 72.90625 
L 51.703125 72.90625 
L 51.703125 64.59375 
L 19.671875 64.59375 
L 19.671875 43.109375 
L 48.578125 43.109375 
L 48.578125 34.8125 
L 19.671875 34.8125 
L 19.671875 0 
L 9.8125 0 
z
" id="DejaVuSans-70"/>
    </defs>
    <g transform="translate(293.772812 312.827216)scale(0.12 -0.12)">
     <use xlink:href="#DejaVuSans-70"/>
     <use x="52.019531" xlink:href="#DejaVuSans-101"/>
     <use x="113.542969" xlink:href="#DejaVuSans-109"/>
     <use x="210.955078" xlink:href="#DejaVuSans-97"/>
     <use x="272.234375" xlink:href="#DejaVuSans-108"/>
     <use x="300.017578" xlink:href="#DejaVuSans-101"/>
    </g>
   </g>
  </g>
 </g>
 <defs>
  <clipPath id="pf26bcb74e0">
   <rect height="247.090909" width="558" x="36.465625" y="22.318125"/>
  </clipPath>
  <clipPath id="p5a2ee25d2b">
   <rect height="247.090909" width="558" x="36.465625" y="318.827216"/>
  </clipPath>
 </defs>
</svg>
